<?xml version="1.0" encoding="utf-8"?>
<!-- Generator: Adobe Illustrator 27.5.0, SVG Export Plug-In . SVG Version: 6.00 Build 0)  -->
<svg version="1.1" xmlns="http://www.w3.org/2000/svg" xmlns:xlink="http://www.w3.org/1999/xlink" x="0px" y="0px"
	 viewBox="0 0 500 500" style="enable-background:new 0 0 500 500;" xml:space="preserve">
<g id="BACKGROUND">
	<rect style="fill:#FFFFFF;stroke:#272525;stroke-miterlimit:10;" width="500" height="500"/>
</g>
<g id="OBJECTS">
	<g>
		<g>
			<path style="opacity:0.4;fill:#ACD5D4;" d="M245.691,65.386c-121.32,9.308-191.216,34.534-207.844,106.16
				s49.882,81.858,62.673,104.881c12.79,23.023-47.964,14.069-70.986,52.441C6.511,367.239,6.511,461.888,128.02,430.552
				s166.275-35.173,231.506-12.79c65.231,22.383,108.718,0.64,115.113-30.057c6.395-30.697-17.907-60.754-45.406-63.312
				c-27.499-2.558-24.302-39.011,21.744-42.848s28.139-43.487-17.906-62.033c-46.045-18.546-6.395-35.813,22.383-51.801
				C484.48,151.583,487.429,46.84,245.691,65.386z"/>
			<path style="opacity:0.4;fill:#ACD5D4;" d="M246.184,109.354c-92.426,7.091-145.676,26.309-158.343,80.877
				c-12.667,54.568,38.002,62.363,47.746,79.902c9.744,17.539-36.541,10.719-54.08,39.951c-17.54,29.233-17.54,101.34,75.03,77.466
				c92.57-23.873,126.675-26.796,176.37-9.744c49.695,17.052,82.826,0.487,87.698-22.899c4.872-23.386-13.642-46.285-34.592-48.234
				c-20.95-1.949-18.514-29.72,16.565-32.643c35.079-2.923,21.437-33.13-13.642-47.259c-35.079-14.129-4.872-27.284,17.052-39.464
				C428.103,175.022,430.349,95.225,246.184,109.354z"/>
		</g>
		<g>
			<g>
				<g>
					<path style="fill:rgb(255, 89, 0)" d="M343.599,317.638c0,0-13.426-6.689-19.36-18.904c-5.934-12.215-3.187-24.466-3.187-24.466
						s0.664,7.674,7.202,11.748c6.538,4.074,7.645-3.754,1.355-10.466c-6.29-6.712-9.301-12.637-7.713-17.652
						c1.588-5.014,8.409-14.169,8.409-14.169s0.657,11.719,5.147,15.494c4.49,3.775,12.587-0.256,8.461-3.944
						c-4.126-3.687-8.259-12.965-8.303-17.6c-0.044-4.635,12.199-17.114,12.199-17.114s-1.231,9.147,1.765,13.527
						c2.996,4.38,10.131,4.357,8.454,0.101c-1.677-4.256-5.752-16.989-3.435-21.828c2.317-4.84,6.231-9.104,6.231-9.104
						s1.612,11.756,4.527,12.455c2.915,0.699,2.047-9.337,1.187-13.782c-0.86-4.446,13.183-13.988,13.948-14.767
						c0.765-0.78,7.675,8.971,8.048,14.649c0.372,5.678-10.56,12.69-9.575,15.817s12.448-10.117,12.448-10.117
						s7.289,11.384,5.803,17.579c-1.486,6.195-17.309,10.3-18.27,14.309c-0.962,4.009,11.545,0.072,17.368-4.12
						c0,0,6.663,12.389,2.451,18.702c-4.212,6.312-19.868,4.098-23.191,8.311c-3.323,4.213,0.642,10.174,9.395,8.228
						c8.753-1.947,13.694-8.084,13.694-8.084s0.147,15.451-6.754,20.925c-6.901,5.474-18.309-4.007-21.945,0.709
						c-3.636,4.716,8.266,8.92,18.549,5.413c0,0-0.408,4.912-10.698,12.464C367.518,309.503,343.599,317.638,343.599,317.638z"/>
					<path style="fill:rgb(255, 89, 0)" d="M370.586,221.212c0,0-20.698,60.197-34.789,114.064l4.496,1.079
						C340.293,336.354,368,242.633,370.586,221.212z"/>
				</g>
				<g>
					<path style="fill:#6DA1A4;" d="M358.684,323.611c0,0-7.27-11.633-6.059-23.992c1.212-12.36,9.209-20.6,9.209-20.6
						s-3.151,6.301,0,12.602c3.15,6.301,7.755,0.727,6.059-7.513s-1.212-14.298,2.423-17.449c3.635-3.151,13.329-7.028,13.329-7.028
						s-5.089,9.452-3.393,14.541c1.697,5.089,9.936,5.816,8.482,0.969c-1.454-4.847-0.242-14.056,1.939-17.691
						c2.181-3.635,17.691-7.513,17.691-7.513s-5.332,6.543-5.089,11.39c0.242,4.847,5.816,8.24,6.543,4.12
						c0.727-4.12,3.635-15.995,7.755-18.661c4.12-2.666,9.209-4.12,9.209-4.12s-4.362,9.936-2.423,11.875
						c1.939,1.939,6.059-6.301,7.513-10.179c1.454-3.878,16.964-4.605,17.934-4.847c0.969-0.242,1.696,10.663-0.727,15.268
						c-2.423,4.605-14.298,4.847-15.026,7.755c-0.727,2.908,14.541-1.939,14.541-1.939s0.242,12.36-3.878,16.48
						c-4.12,4.12-18.418-0.242-21.084,2.423c-2.666,2.666,8.967,5.574,15.51,5.089c0,0-0.727,12.844-7.028,15.753
						s-17.449-6.301-22.054-4.605c-4.605,1.696-4.362,8.24,3.393,10.906c7.755,2.666,14.541,0.242,14.541,0.242
						s-7.27,12.117-15.268,13.087c-7.997,0.969-12.36-11.875-17.449-9.936c-5.089,1.939,2.181,10.906,11.875,13.087
						c0,0-2.666,3.635-14.298,4.605C381.222,328.7,358.684,323.611,358.684,323.611z"/>
					<path style="fill:#528E8D;" d="M425.814,261.328c0,0-44.91,37.042-81.644,72.306l2.99,2.99
						C347.161,336.623,413.56,276.794,425.814,261.328z"/>
				</g>
				<g>
					<path style="fill:rgb(255, 89, 0)" d="M364.006,345.491c0,0-2.724-13.445,2.75-24.592c5.474-11.148,15.855-16.056,15.855-16.056
						s-5.162,4.794-4.424,11.8c0.738,7.006,7.006,3.403,8.311-4.908c1.304-8.311,3.885-13.814,8.395-15.488
						c4.51-1.674,14.948-1.901,14.948-1.901s-8.083,7.063-8.282,12.424c-0.198,5.361,7.262,8.934,7.602,3.885
						c0.34-5.049,4.708-13.247,8.026-15.885c3.319-2.638,19.203-0.824,19.203-0.824s-7.289,4.255-8.764,8.879
						c-1.475,4.624,2.553,9.757,4.681,6.155c2.127-3.603,9.019-13.701,13.813-14.751c4.793-1.05,10.069-0.625,10.069-0.625
						s-7.573,7.772-6.438,10.268c1.135,2.496,7.885-3.773,10.608-6.893c2.723-3.12,17.501,1.644,18.494,1.757
						c0.993,0.113-2.155,10.58-6.041,14.041c-3.886,3.461-15.09-0.481-16.792,1.987c-1.702,2.468,14.296,3.289,14.296,3.289
						s-4.112,11.658-9.416,14.069c-5.304,2.411-17.161-6.693-20.593-5.133c-3.432,1.56,6.439,8.367,12.736,10.21
						c0,0-5.19,11.772-12.111,12.283c-6.921,0.511-14.126-12.026-19.034-12.054c-4.907-0.028-6.977,6.184-0.652,11.403
						c6.326,5.219,13.53,5.332,13.53,5.332s-11.062,8.794-18.89,6.894c-7.829-1.9-7.404-15.458-12.85-15.429
						c-5.446,0.029-1.786,10.977,6.525,16.423c0,0-3.772,2.468-15.005-0.708C383.323,358.169,364.006,345.491,364.006,345.491z"/>
					<path style="fill:rgb(255, 89, 0)" d="M448.729,310.739c0,0-55.056,18.918-101.831,39.042l1.75,3.849
						C348.648,353.63,431.825,320.919,448.729,310.739z"/>
				</g>
				<g>
					<path style="fill:#6DA1A4;" d="M365.084,383.665c0,0-2.039-13.565,3.992-24.421c6.031-10.856,16.648-15.232,16.648-15.232
						s-5.398,4.526-5.016,11.561c0.382,7.034,6.825,3.754,8.548-4.48c1.724-8.234,4.58-13.599,9.169-15.042
						c4.589-1.443,15.025-1.142,15.025-1.142s-8.431,6.645-8.901,11.989c-0.469,5.344,6.8,9.291,7.395,4.266
						c0.595-5.025,5.373-12.991,8.821-15.458c3.448-2.467,19.22,0.15,19.22,0.15s-7.496,3.88-9.203,8.423
						c-1.707,4.543,2.056,9.874,4.363,6.384c2.307-3.49,9.702-13.226,14.542-14.032c4.841-0.806,10.088-0.114,10.088-0.114
						s-7.957,7.379-6.95,9.929s8.066-3.369,10.944-6.347c2.877-2.978,17.395,2.529,18.381,2.692
						c0.986,0.164-2.688,10.457-6.744,13.717c-4.056,3.259-15.046-1.245-16.871,1.133c-1.824,2.378,14.111,4.009,14.111,4.009
						s-4.698,11.435-10.117,13.574c-5.419,2.14-16.8-7.554-20.307-6.169c-3.507,1.384,6.007,8.683,12.203,10.843
						c0,0-5.78,11.494-12.718,11.653c-6.938,0.16-13.499-12.726-18.398-13.003c-4.899-0.277-7.282,5.823-1.228,11.355
						c6.053,5.532,13.243,6.01,13.243,6.01s-11.493,8.222-19.215,5.928c-7.722-2.294-6.612-15.814-12.052-16.061
						c-5.441-0.247-2.34,10.873,5.684,16.732c0,0-3.892,2.274-14.95-1.467C383.734,397.306,365.084,383.665,365.084,383.665z"/>
					<path style="fill:#528E8D;" d="M451.459,353.25c0,0-55.944,16.104-103.678,33.832l1.553,3.933
						C349.334,391.016,434.061,362.56,451.459,353.25z"/>
				</g>
			</g>
			<g>
				<g>
					<g>
						<path style="fill:rgb(255, 89, 0)" d="M151.906,393.727c-0.012,0.008-0.024,0.017-0.037,0.024c-0.513,0.326-1.193,0.174-1.519-0.339
							c-42.222-66.443-57.514-133.114-57.663-133.78c-0.133-0.594,0.24-1.181,0.832-1.315c0.593-0.133,1.182,0.239,1.314,0.832
							c0.149,0.663,15.367,66.977,57.374,133.083C152.526,392.733,152.389,393.392,151.906,393.727z"/>
					</g>
					<path style="fill:rgb(255, 89, 0)" d="M94.266,261.5c0,0-20.804-18.783-10.46-42.946C83.806,218.554,104.116,234.502,94.266,261.5z"/>
					<g>
						<path style="fill:rgb(255, 89, 0)" d="M96.207,268.93c0,0,1.145-28.006,26.339-35.497C122.546,233.432,123.265,259.246,96.207,268.93
							z"/>
						<path style="fill:rgb(255, 89, 0)" d="M102.758,290.089c0,0,1.145-28.006,26.339-35.498
							C129.097,254.591,129.816,280.405,102.758,290.089z"/>
						<path style="fill:rgb(255, 89, 0)" d="M110.631,310.978c0,0,1.145-28.006,26.339-35.498
							C136.97,275.481,137.689,301.294,110.631,310.978z"/>
						<path style="fill:rgb(255, 89, 0)" d="M119.3,332.395c0,0,1.145-28.006,26.339-35.498C145.639,296.897,146.358,322.711,119.3,332.395
							z"/>
						<path style="fill:rgb(255, 89, 0)" d="M132.283,360.177c0,0,1.145-28.006,26.339-35.498
							C158.622,324.68,159.341,350.493,132.283,360.177z"/>
					</g>
					<g>
						<path style="fill:rgb(255, 89, 0)" d="M96.144,268.951c0,0-17.809-21.644-42.421-12.42C53.723,256.531,68.722,277.552,96.144,268.951
							z"/>
						<path style="fill:rgb(255, 89, 0)" d="M102.789,289.615c0,0-19.835-19.804-43.43-8.223
							C59.359,281.392,76.338,300.849,102.789,289.615z"/>
						<path style="fill:rgb(255, 89, 0)" d="M110.554,311.318c0,0-19.242-20.381-43.169-9.501
							C67.385,301.817,83.782,321.767,110.554,311.318z"/>
						<path style="fill:rgb(255, 89, 0)" d="M119.361,332.405c0,0-21.148-18.395-43.892-5.222
							C75.468,327.183,93.743,345.429,119.361,332.405z"/>
						<path style="fill:rgb(255, 89, 0)" d="M133.014,360.148c0,0-22.468-16.758-44.16-1.916
							C88.854,358.232,108.445,375.056,133.014,360.148z"/>
					</g>
				</g>
				<g>
					<g>
						<path style="fill:#6DA1A4;" d="M135.538,389.085c-0.014,0-0.029,0-0.044-0.001c-0.607-0.024-1.08-0.536-1.056-1.143
							c3.122-78.661,28.511-142.177,28.768-142.809c0.228-0.564,0.87-0.834,1.433-0.607c0.563,0.228,0.835,0.87,0.607,1.433
							c-0.255,0.63-25.503,63.81-28.608,142.072C136.613,388.62,136.126,389.085,135.538,389.085z"/>
					</g>
					<path style="fill:#6DA1A4;" d="M163.44,247.565c0,0-6.408-27.287,15.854-41.261C179.294,206.304,186.91,230.979,163.44,247.565
						z"/>
					<g>
						<path style="fill:#6DA1A4;" d="M160.806,254.779c0,0,16.887-22.371,41.864-14.185
							C202.67,240.594,188.563,262.224,160.806,254.779z"/>
						<path style="fill:#6DA1A4;" d="M154.143,275.903c0,0,16.887-22.371,41.864-14.185
							C196.007,261.718,181.901,283.348,154.143,275.903z"/>
						<path style="fill:#6DA1A4;" d="M148.722,297.558c0,0,16.887-22.371,41.864-14.185
							C190.586,283.373,176.479,305.003,148.722,297.558z"/>
						<path style="fill:#6DA1A4;" d="M143.654,320.1c0,0,16.887-22.371,41.864-14.185
							C185.518,305.915,171.412,327.545,143.654,320.1z"/>
						<path style="fill:#6DA1A4;" d="M138.508,350.331c0,0,16.887-22.371,41.864-14.185
							C180.372,336.146,166.266,357.776,138.508,350.331z"/>
					</g>
					<g>
						<path style="fill:#6DA1A4;" d="M160.741,254.76c0,0-2.316-27.933-27.802-34.364
							C132.939,220.396,133.301,246.217,160.741,254.76z"/>
						<path style="fill:#6DA1A4;" d="M154.439,275.531c0,0-5.03-27.574-31.021-31.488
							C123.418,244.043,126.297,269.705,154.439,275.531z"/>
						<path style="fill:#6DA1A4;" d="M148.465,297.794c0,0-4.214-27.71-30.078-32.39
							C118.386,265.404,120.507,291.14,148.465,297.794z"/>
						<path style="fill:#6DA1A4;" d="M143.698,320.143c0,0-6.911-27.164-33.11-29.284
							C110.589,290.859,115.223,316.263,143.698,320.143z"/>
						<path style="fill:#6DA1A4;" d="M139.126,350.724c0,0-8.929-26.569-35.212-26.719
							C103.914,324.005,110.44,348.99,139.126,350.724z"/>
					</g>
				</g>
				<g>
					<g>
						<path style="fill:#6DA1A4;" d="M161.807,391.187c-0.01,0.011-0.02,0.022-0.03,0.032c-0.418,0.441-1.115,0.458-1.556,0.039
							c-57.064-54.231-88.057-115.209-88.363-115.819c-0.273-0.544-0.053-1.204,0.489-1.478c0.543-0.273,1.204-0.054,1.477,0.489
							c0.305,0.607,31.139,61.257,87.914,115.213C162.167,390.072,162.195,390.745,161.807,391.187z"/>
					</g>
					<path style="fill:#6DA1A4;" d="M73.842,276.869c0,0-24.736-13.182-20.556-39.132C53.287,237.738,76.856,248.289,73.842,276.869
						z"/>
					<g>
						<path style="fill:#6DA1A4;" d="M77.526,283.607c0,0-5.676-27.448,16.952-40.822
							C94.478,242.785,101.431,267.655,77.526,283.607z"/>
						<path style="fill:#6DA1A4;" d="M89.009,302.548c0,0-5.676-27.449,16.952-40.822
							C105.961,261.726,112.914,286.596,89.009,302.548z"/>
						<path style="fill:#6DA1A4;" d="M101.71,320.907c0,0-5.675-27.448,16.952-40.822
							C118.661,280.085,125.615,304.955,101.71,320.907z"/>
						<path style="fill:#6DA1A4;" d="M115.31,339.584c0,0-5.676-27.448,16.952-40.822
							C132.262,298.762,139.215,323.632,115.31,339.584z"/>
						<path style="fill:#6DA1A4;" d="M134.639,363.392c0,0-5.676-27.448,16.952-40.822
							C151.59,322.57,158.543,347.44,134.639,363.392z"/>
					</g>
					<g>
						<path style="fill:#6DA1A4;" d="M77.47,283.643c0,0-22.523-16.683-44.167-1.77C33.304,281.873,52.95,298.633,77.47,283.643z"/>
						<path style="fill:#6DA1A4;" d="M88.925,302.081c0,0-24.043-14.407-44.129,2.546C44.797,304.627,65.984,319.39,88.925,302.081z
							"/>
						<path style="fill:#6DA1A4;" d="M101.717,321.256c0,0-23.607-15.11-44.184,1.243
							C57.533,322.499,78.275,337.881,101.717,321.256z"/>
						<path style="fill:#6DA1A4;" d="M115.371,339.579c0,0-24.975-12.722-43.85,5.57C71.522,345.15,93.673,358.423,115.371,339.579z
							"/>
						<path style="fill:#6DA1A4;" d="M135.341,363.187c0,0-25.859-10.814-43.308,8.843
							C92.032,372.03,115.117,383.605,135.341,363.187z"/>
					</g>
				</g>
			</g>
		</g>
		<g>
			<g>
				<path style="fill:#52908A;" d="M133.112,153.788c1.477,4.562,3.321,8.338,7.676,9.859c1.079,0.383,2.213,0.216,3.308-0.138
					l1.779-0.576c1.899-0.615,3.934,0.425,4.546,2.314l4.339,13.404c0.611,1.889-0.428,3.924-2.327,4.539l-5.828,1.886
					c-0.955,0.309-1.996,0.213-2.877-0.279c-4.387-2.476-17.778-11.129-22.924-27.024c-5.146-15.895,0.634-30.754,2.738-35.332
					c0.425-0.915,1.213-1.603,2.167-1.912l5.828-1.887c1.899-0.615,3.934,0.425,4.546,2.314l4.339,13.404
					c0.611,1.889-0.428,3.924-2.327,4.539l-1.778,0.576c-1.095,0.354-2.112,0.883-2.761,1.826
					C130.916,145.085,131.635,149.226,133.112,153.788z"/>
				<path style="fill:#CA404E;" d="M119.422,183.371l-9.504,13.202c0,0-21.096-13.592-21.892-39.732
					c-0.602-20.193,10.105-30.953,14.99-34.794l-3.363-5.486h18.937l-8.229,17.415l-3.274-5.327
					c-3.097,5.079-7.875,15.22-5.858,27.148C104.132,172.947,119.422,183.371,119.422,183.371z"/>
				<path style="fill:#DB9431;" d="M153.403,129.764l9.504-13.202c0,0,21.096,13.592,21.892,39.732
					c0.602,20.193-10.105,30.953-14.99,34.794l3.363,5.486h-18.937l8.23-17.415l3.274,5.327c3.097-5.079,7.876-15.22,5.858-27.148
					C168.694,140.188,153.403,129.764,153.403,129.764z"/>
			</g>
			<g>
				<g>
					<path style="fill:#DB9431;" d="M244.127,76.239h-54.682c-3.473,0-6.284,2.823-6.284,6.284v27.722
						c0,3.473,2.811,6.284,6.284,6.284h32.285l12.63,27.43v-27.43h9.766c3.473,0,6.284-2.811,6.284-6.284V82.523
						C250.411,79.063,247.6,76.239,244.127,76.239z"/>
					<g>
						<circle style="fill:#FFFFFF;" cx="201.049" cy="95.384" r="4.478"/>
						<circle style="fill:#FFFFFF;" cx="216.787" cy="95.384" r="4.478"/>
						<circle style="fill:#FFFFFF;" cx="232.524" cy="95.384" r="4.478"/>
					</g>
				</g>
				<g>
					<path style="fill:#FFFFFF;" d="M337.89,94.975h55.917c3.551,0,6.426,2.887,6.426,6.426v28.348c0,3.551-2.874,6.426-6.426,6.426
						h-33.015L329.4,164.225l18.477-28.049h-9.987c-3.552,0-6.426-2.874-6.426-6.426v-28.348
						C331.464,97.863,334.339,94.975,337.89,94.975z"/>
				</g>
				<g>
					<path style="fill:#DB9431;" d="M384.419,128.225h-35.714c-1.248,0-2.26-1.012-2.26-2.26v-19.668c0-1.248,1.012-2.26,2.26-2.26
						h35.714c1.248,0,2.26,1.012,2.26,2.26v19.668C386.679,127.214,385.667,128.225,384.419,128.225z"/>
					<polyline style="fill:none;stroke:#FFFFFF;stroke-miterlimit:10;" points="384.166,108.003 366.563,116.132 348.959,108.003 
											"/>
				</g>
			</g>
		</g>
		<g>
			<g>
				<g>
					<path style="fill:#ACD5D4;" d="M347.826,392.873H223.461V246.8c0,0,7.38-2.975,16.671-6.709
						c8.962-3.62,19.721-7.937,27.303-10.962c4.835-1.924,8.392-3.316,9.38-3.671l19.228-0.519l50.683,28.303l0.063,7.494
						L347.826,392.873z"/>
					<path style="opacity:0.3;fill:#4A6C8F;" d="M347.826,392.873H223.461V288.559c0.671-0.127,1.241-0.089,1.684,0.114
						c7.861,3.544,32.708,59.569,44.113,49.936c11.405-9.633,29.404-52.733,57.543-81.378c0,0,10.772,1.81,19.987,3.506
						L347.826,392.873z"/>
					<path style="opacity:0.3;fill:#4A6C8F;" d="M261.385,333.102c3.215,18.81,2.633,44.214,1.671,59.771h-24.759
						c-2.278-33.987-3.266-112.77,1.835-152.782c8.962-3.62,19.721-7.937,27.303-10.962l0.139,0.241
						C263.688,238.015,256.486,304.381,261.385,333.102z"/>
				</g>
				<g>
					<g>
						<path style="fill:#D6DD40;" d="M263.6,227.611c-0.063,0.139-0.608,1.354-1.443,3.57c-2.608,6.936-8.038,23.632-10.139,47.48
							c-2.823,31.961,0,114.973,0,114.973h-60.455c0,0-0.317-34.151,1.253-75.188c1.19-31.506,9.975-54.518,16.114-65.492
							c1.861-3.316,3.468-5.532,4.557-6.557C218.132,242.066,262.562,227.927,263.6,227.611z"/>
						<path style="opacity:0.7;fill:#FFFFFF;" d="M263.6,227.611c-0.063,0.139-0.608,1.354-1.443,3.57
							c-11.443,4.139-43.265,17.772-53.227,21.772c1.861-3.316,3.468-5.532,4.557-6.557
							C218.132,242.066,262.562,227.927,263.6,227.611z"/>
					</g>
					<g>
						<path style="fill:#D6DD40;" d="M365.383,393.81h-79.872c0,0,0.279-17.797,0.823-38.658
							c0.506-19.557,1.278-41.809,2.266-54.594c1.608-20.645,10.063-54.784,13.658-68.644c1.013-3.861,1.633-6.152,1.633-6.152
							c2.696,0.443,37.126,18.886,52.214,30.645c3.342,2.608,5.721,4.886,6.62,6.569c0.443,0.835,0.823,2.57,1.152,5.025v0.013
							C367.256,293.09,365.383,393.81,365.383,393.81z"/>
						<path style="opacity:0.3;fill:#4A6C8F;" d="M365.383,393.81h-79.872c0,0,0.266-17.063,0.785-37.366
							c8.253-0.658,30.81,5.38,35.797-29.632c4.696-32.86,20.936-59.961,41.683-59.531c0.038,0.228,0.063,0.468,0.101,0.721v0.013
							C367.256,293.09,365.383,393.81,365.383,393.81z"/>
					</g>
					<path style="opacity:0.7;fill:#FFFFFF;" d="M363.876,268.002c-7.899-6.38-42.392-27.455-61.619-36.088
						c1.013-3.861,1.633-6.152,1.633-6.152c3.291,0.544,53.91,27.911,58.834,37.214
						C363.168,263.812,363.547,265.547,363.876,268.002z"/>
					<g>
						<path style="fill:#DB9431;" d="M296.042,292.318c-7.304,29.455-3.911,102.707-3.911,102.707h-11.734
							c0,0-2.608-53.176,5.215-99.327c3.481-20.531,7.772-35.658,10.709-46.556c0-0.013,0.013-0.025,0.013-0.051
							c3.076-11.456,4.646-18.215,2.203-21.607c-0.051-0.063-0.101-0.127-0.152-0.19c-0.329-0.43-0.747-0.798-1.228-1.114
							c-0.126-0.089-0.266-0.177-0.418-0.253c-8.595-4.696-23.848-0.051-23.848-0.051s-3.177,1.278-6.646,8
							c-2.329,4.519-4.797,11.481-6.519,22.164c-4.43,27.506-2.291,139.415-2.291,139.415h-12.886c0,0,1.582-121.694,6.139-143.997
							c2.987-14.658,7.063-22.43,13.43-27.329c2.329-1.785,4.962-3.202,7.962-4.418c1.089-0.456,2.228-0.873,3.43-1.278
							c6.721-2.798,24.607-5.19,30.81,5.57c0.241,0.418,0.468,0.848,0.671,1.304C312.46,237.56,303.333,262.85,296.042,292.318z"/>
						<path style="opacity:0.7;fill:#FFFFFF;" d="M272.081,219.712c-16.202,13.177-21.493,30.468-22.746,70.227
							c-1.228,39.101-0.721,85.15-4.228,105.517h-0.557c0,0,1.582-121.694,6.139-143.997c2.987-14.658,7.063-22.43,13.43-27.329
							C266.448,222.345,269.081,220.927,272.081,219.712z"/>
						<path style="opacity:0.7;fill:#FFFFFF;" d="M285.612,295.698c3.481-20.531,7.772-35.658,10.709-46.556
							c-2.506,14.189-6.354,31.645-7.747,44.417c-2.494,23.101-7.785,77.378-6.114,98.53c0.076,0.987,0.152,1.962,0.228,2.937
							h-2.291C280.397,395.025,277.789,341.849,285.612,295.698z"/>
						<path style="fill:#4A6C8F;" d="M298.384,227.294c-0.329-0.43-0.747-0.798-1.228-1.114c0.392-0.519,0.608-0.81,0.608-0.81
							C298.042,225.851,298.245,226.497,298.384,227.294z"/>
						<path style="opacity:0.3;fill:#AD6A31;" d="M306.32,224.003c-2.684,0.696-5.329,1.962-7.785,3.481
							c-0.456-0.633-1.051-1.152-1.797-1.557c-8.595-4.696-23.848-0.051-23.848-0.051s-3.177,1.278-6.646,8
							c-1.063-2.126-2.202-5.456-2.126-9.747c3.177-2.443,6.924-4.177,11.392-5.696C282.232,215.636,300.118,213.244,306.32,224.003
							z"/>
					</g>
				</g>
				<g>
					<path style="fill:#DC8865;" d="M298.548,182.801v45.24c0,0-6.354,10.658-16.822,12.899c-10.468,2.24-14.759-5.24-14.759-5.24
						s0.658-7.266,1.316-14.658c0.684-7.468,1.38-15.05,1.481-15.43l28.48-22.569L298.548,182.801z"/>
					<path style="fill:rgb(255, 89, 0)" d="M284.536,216.269c-6.456,3.937-12.05,4.911-16.253,4.772c0.684-7.468,1.38-15.05,1.481-15.43
						l28.48-22.569C298.726,193.054,296.384,209.029,284.536,216.269z"/>
				</g>
				<g>
					<g>
						<path style="fill:#DC8865;" d="M277.068,393.532c0,1.316-54.543,0.342-68.606,0.063c-1.253-0.025-2.19-0.038-2.734-0.051
							c-0.354-0.013-0.544-0.013-0.544-0.013s1.506-6.962,3.949-9.405c2.456-2.456,18.443-14.304,21.265-14.683
							c2.823-0.38,30.48,3.392,30.48,3.392s2.62-0.57,5.633-1.19c0.165-0.025,0.354-0.063,0.532-0.089
							c3.797-0.772,8.025-1.557,8.329-1.354C275.372,370.203,277.068,392.025,277.068,393.532z"/>
						<path style="fill:#D25C2C;" d="M277.068,393.532c0,1.316-54.543,0.342-68.606,0.063c3.671-2.899,20.43-9.202,26.835-10.417
							c6.962-1.316,32.367,0.57,32.367,0.57s-0.164-6.772-0.62-12.19c3.797-0.772,8.025-1.557,8.329-1.354
							C275.372,370.203,277.068,392.025,277.068,393.532z"/>
						<path style="opacity:0.7;fill:#FFFFFF;" d="M260.878,372.836c0,0,2.62-0.57,5.633-1.19c-0.886,1.101-2.582,3.114-3,3.253
							c-0.557,0.19-28.215-3.19-31.037-2.443c-2.823,0.759-17.126,9.038-20.329,12.797c-1.747,2.063-4.354,5.38-6.418,8.291
							c-0.354-0.013-0.544-0.013-0.544-0.013s1.506-6.962,3.949-9.405c2.456-2.456,18.443-14.304,21.265-14.683
							C233.221,369.064,260.878,372.836,260.878,372.836z"/>
					</g>
					<path style="fill:#D6DD40;" d="M378.509,376.38c-2.658,15.822-8.329,17.772-8.329,17.772h-98.378l-1.063-15.012l-0.861-12.164
						l-0.139-1.962l8.468-1.734l57.012-11.645c0,0-4.456-32.898,2.734-61.695c4.443-17.759,12.418-24.202,18.126-26.316
						c3.544-1.316,6.228-0.975,6.645-0.646c8.342,6.43,12.291,26.557,14.949,57.505c0.646,7.582,1.215,15.81,1.76,24.645
						C380.294,359.152,379.711,369.203,378.509,376.38z"/>
					<polygon style="fill:#DB9431;" points="281.144,394.152 271.802,394.152 269.739,365.013 278.207,363.279 					"/>
					<path style="opacity:0.3;fill:#4A6C8F;" d="M370.18,394.152h-98.378l-1.063-15.012c20.19-0.987,69.834-2.24,71.404-2.038
						c1.911,0.241-5.734-13.873-5.493-16.253c0.228-2.329,18.936,12.253,20.025,13.101c-0.962-0.975-16.101-16.265-13.088-17.645
						c3.101-1.443,19.152,10.215,24.544,7.823c3.304-1.481,7.949-22.721,9.544-43.645c0.646,7.582,1.215,15.81,1.76,24.645
						C382.18,390.038,370.18,394.152,370.18,394.152z"/>
					<path style="opacity:0.7;fill:#FFFFFF;" d="M335.219,351.634l8.367,4.671c0,0-2.709-0.266-6.899-0.861
						c-3.734-0.544-53.809,9.342-66.809,11.531l-0.139-1.962l8.468-1.734L335.219,351.634z"/>
					<path style="opacity:0.7;fill:#FFFFFF;" d="M378.509,376.38c0.418-33.303-7.519-102.378-16.367-110.188
						c-1.595-1.405-3.671-2.24-6.063-2.57c3.544-1.316,6.228-0.975,6.645-0.646c8.342,6.43,12.291,26.557,14.949,57.505
						c0.646,7.582,1.215,15.81,1.76,24.645C380.294,359.152,379.711,369.203,378.509,376.38z"/>
				</g>
				<g>
					<path style="fill:#DC8865;" d="M243.244,218.867c-0.595,1.494-4.135,9.93-6.334,15.448c-0.954,2.42-1.66,4.274-1.757,4.758
						c-0.29,1.577-12.461,10.276-12.461,10.276l-0.484,17.426l-10.497-0.346L199.029,266l7.855-20.026c0,0-0.733-4.813-1.203-9.073
						c-0.221-2.005-0.387-3.9-0.387-5.089c0-1.853,1.3-6.085,2.586-9.875c0,0,0.014-0.014,0.014-0.028
						c1.272-3.748,2.572-7.053,2.572-7.053s1.411-15.725,2.503-17.744c1.079-2.005,3.167-1.466,3.859-0.235
						c0,0,0.014-0.042,0.028-0.111c0.097-0.609,0.719-3.499,2.296-3.914c1.784-0.456,3.029,1.936,3.029,1.936
						s0.014-0.014,0.014-0.055c0.124-0.581,1.203-5.269,3.388-5.048c2.102,0.207,2.669,3.776,2.752,4.453
						c0.014,0.069,0.028,0.111,0.028,0.111s1.009-2.393,2.946-1.936c1.936,0.47,2.476,2.476,2.476,6.348
						c0,3.872,0.456,15.628,0.456,17.329c0,1.411-0.374,7.358-0.484,9.377c-0.042,0.443-0.055,0.691-0.055,0.691
						s0.124-0.498,0.387-1.259c0.609-1.812,1.909-5.117,3.789-6.777c2.655-2.365,5.228-2.462,5.919-1.674
						C244.046,216.64,243.756,217.594,243.244,218.867z"/>
					<path style="fill:#D25C2C;" d="M236.91,234.315c-0.954,2.42-1.66,4.274-1.757,4.758c-0.29,1.577-12.461,10.276-12.461,10.276
						l-0.484,17.426l-10.497-0.346c0.761-6.694,1.549-17.26,1.549-17.26s-4.025,0.138-6.376-3.195c0,0-0.733-4.813-1.203-9.073
						c1.618,1.992,3.388,2.711,5.034,3.637c2.766,1.549,6.638-0.332,6.638-0.332s2.987,1.992,3.651,1.992
						c0.664,0,10.829-3.872,14.038-6.403C235.596,235.352,236.246,234.854,236.91,234.315z"/>
					<path style="opacity:0.7;fill:#FFFFFF;" d="M216.828,196.877c0,0-1.756-1.162-2.6,0.512c-0.83,1.673-2.614,17.896-2.614,17.896
						s-1.964,3.444-3.72,6.625c1.272-3.748,2.572-7.053,2.572-7.053s1.411-15.725,2.503-17.744
						C214.049,195.107,216.137,195.646,216.828,196.877z"/>
					<path style="opacity:0.7;fill:#FFFFFF;" d="M222.181,194.788c0,0-0.719-1.051-2.683-0.747
						c-1.729,0.263-2.476,2.241-2.641,2.725c0.097-0.609,0.719-3.499,2.296-3.914C220.936,192.396,222.181,194.788,222.181,194.788z
						"/>
					<path style="opacity:0.7;fill:#FFFFFF;" d="M228.335,194.138c-0.166-0.47-0.899-2.393-2.628-2.6
						c-1.812-0.207-3.292,2.752-3.513,3.195c0.124-0.581,1.203-5.269,3.388-5.048C227.685,189.893,228.252,193.461,228.335,194.138z
						"/>
					<path style="opacity:0.7;fill:#FFFFFF;" d="M234.241,215.99c0,1.411-0.374,7.358-0.484,9.377
						c-0.125,0.208-0.194,0.318-0.194,0.318s0.111-28.767-1.411-31.035c-1.521-2.282-3.789-0.401-3.789-0.401
						s1.009-2.393,2.946-1.936c1.936,0.47,2.476,2.476,2.476,6.348C233.784,202.533,234.241,214.289,234.241,215.99z"/>
					<path style="opacity:0.7;fill:#FFFFFF;" d="M243.244,218.867c-0.705-0.304-1.577-0.443-2.6-0.277
						c-2.725,0.456-5.449,4.412-6.555,6.21c0.609-1.812,1.909-5.117,3.789-6.777c2.655-2.365,5.228-2.462,5.919-1.674
						C244.046,216.64,243.756,217.594,243.244,218.867z"/>
					<g>
						<path style="fill:none;stroke:#D25C2C;stroke-linecap:round;stroke-linejoin:round;stroke-miterlimit:10;" d="
							M216.682,233.727c0,0,6.883-5.469,13.578-6.035"/>
						<path style="fill:none;stroke:#D25C2C;stroke-linecap:round;stroke-linejoin:round;stroke-miterlimit:10;" d="
							M221.302,238.818c0,0,2.923-7.92,10.183-9.523l1.697-1.98"/>
						<path style="fill:none;stroke:#D25C2C;stroke-linecap:round;stroke-linejoin:round;stroke-miterlimit:10;" d="
							M212.345,217.792c0,0,9.429-0.471,18.292-0.849"/>
						
							<line style="fill:none;stroke:#D25C2C;stroke-linecap:round;stroke-linejoin:round;stroke-miterlimit:10;" x1="228.091" y1="195.916" x2="226.96" y2="215.057"/>
						
							<line style="fill:none;stroke:#D25C2C;stroke-linecap:round;stroke-linejoin:round;stroke-miterlimit:10;" x1="222.245" y1="197.331" x2="221.208" y2="215.057"/>
						
							<line style="fill:none;stroke:#D25C2C;stroke-linecap:round;stroke-linejoin:round;stroke-miterlimit:10;" x1="216.871" y1="198.934" x2="215.834" y2="214.774"/>
					</g>
				</g>
				<g>
					<path style="fill:#D6DD40;" d="M225.702,259.483c0,0-0.089,2.582-0.215,6.924c-0.532,17.101-1.823,61.404-1.823,81.973
						c0,25.784-4.747,39.695-23.405,41.392c-13.886,1.266-18.949-6.683-20.898-18.936c-0.253-1.481-0.443-3.038-0.595-4.645
						c-0.291-2.937-0.456-6.076-0.57-9.329c-0.557-16.316,13.341-72.973,18.101-91.859c0.987-3.899,1.582-6.19,1.582-6.19
						l4.962,0.114l12.81,0.316L225.702,259.483z"/>
					<path style="fill:#DB9431;" d="M225.702,259.483c0,0-0.089,2.582-0.215,6.924l-11.253-0.544l-13.139-0.633l-4.797-0.228
						c0.987-3.899,1.582-6.19,1.582-6.19l4.962,0.114l12.81,0.316L225.702,259.483z"/>
					<path style="opacity:0.3;fill:#4A6C8F;" d="M225.702,259.483c0,0-0.089,2.582-0.215,6.924
						c-0.532,17.101-1.823,61.404-1.823,81.973c0,25.784-4.747,39.695-23.405,41.392c-13.886,1.266-18.949-6.683-20.898-18.936
						c-0.253-1.481-0.443-3.038-0.595-4.645c0.266,0.228,0.532,0.443,0.798,0.633c28.885,22.43,31.202-27.987,30.873-30.999
						c-0.342-3.051-7.126,1.354-9.164-2.038c-1.519-2.532,7.759-43.733,12.962-67.923c0.519-2.392,1-4.62,1.418-6.62
						L225.702,259.483z"/>
					<path style="opacity:0.7;fill:#FFFFFF;" d="M202.841,258.927c-0.43,1.557-1.025,3.683-1.747,6.304
						c-5.785,21.088-19.569,73.492-21.531,101.593c-0.101,1.405-0.177,2.747-0.202,4.013c-0.253-1.481-0.443-3.038-0.595-4.645
						c-0.291-2.937-0.456-6.076-0.57-9.329c-0.557-16.316,13.341-72.973,18.101-91.859c0.987-3.899,1.582-6.19,1.582-6.19
						L202.841,258.927z"/>
				</g>
				<g>
					<g>
						<g>
							<path style="fill:rgb(255, 89, 0)" d="M255.496,164.786h4.564v1.189c4.099,2.232,6.97,7.375,6.97,13.367
								c0,5.992-2.871,11.134-6.97,13.367v1.189h-4.564c-6.37,0-11.534-6.517-11.534-14.556
								C243.963,171.303,249.127,164.786,255.496,164.786z"/>
							<ellipse style="fill:#DB9431;" cx="260.061" cy="179.342" rx="11.534" ry="14.556"/>
							<ellipse style="fill:rgb(255, 89, 0)" cx="260.061" cy="179.342" rx="7.71" ry="9.73"/>
						</g>
						<path style="fill:rgb(255, 89, 0)" d="M254.297,146.496c-2.657,4.187-0.986,10.548-0.986,10.548l1.691,1.955l13.391-15.999
							L254.297,146.496z"/>
						<g>
							<path style="fill:#DC8865;" d="M301.333,163.624c-0.38,14.797-1.861,43.657-26.088,46.986
								c-0.709,0.101-1.392,0.165-2.051,0.215c-5.658,0.392-9.734-1.013-12.658-3.62c-8.519-7.506-7.342-25.05-6.937-37.48
								c0.304-9.557,2.506-17.417,7.949-22.493c3.658-3.418,8.772-5.595,15.785-6.19c1.329-0.114,2.734-0.177,4.202-0.177
								C287.954,140.878,301.7,148.827,301.333,163.624z"/>
							<path style="fill:#D25C2C;" d="M301.333,163.624c-0.38,14.797-1.861,43.657-26.088,46.986
								c-0.709,0.101-1.392,0.165-2.051,0.215c4.456-3.696,8.62-9.012,9.278-16.24c1.481-16.278,2.785-44.784-5.139-53.543
								c1.329-0.114,2.734-0.177,4.202-0.177C287.954,140.878,301.7,148.827,301.333,163.624z"/>
							<path style="opacity:0.7;fill:#FFFFFF;" d="M258.182,196.269c0.886,4.62,1.684,8.202,2.354,10.937
								c-8.519-7.506-7.342-25.05-6.937-37.48c0.304-9.557,2.506-17.417,7.949-22.493
								C256.018,163.194,256.03,185.08,258.182,196.269z"/>
						</g>
						<g>
							<path style="fill:#82435C;" d="M318.827,155.979c-1.861,11.595-12.569,25.683-12.569,25.683l-11.531,0.481l-0.949-9.569
								c0,0-5.063-3.633-4.899-11.025c0.177-7.177,4.519-11.405,4.785-11.658c-0.418,0.203-10.671,5.266-20.848-0.418
								c-10.379-5.797-15.228-3.152-17.709,0.57c-2.291,3.418-0.101,8.962-0.101,8.962s-4.772-0.747-5.443-7.101
								c-0.013,0,0-0.013,0-0.013c-0.139-1.367-0.089-2.962,0.228-4.886c0.633-3.835,2.43-6,4.481-7.19c0.013,0,0.013,0,0.025,0
								c3.772-2.177,8.443-1.063,8.443-1.063s2.683-8.848,19.531-5.443c0,0,8.962-4.114,15.747-1.215
								c6.797,2.911,7.038,8.24,7.038,8.24s9.569-3.468,13.456,8.329c0.241,0.734,0.405,1.506,0.481,2.304
								c0,0.013,0.013,0.013,0.013,0.025C319.194,152.561,319.118,154.245,318.827,155.979z"/>
							<path style="fill:#4B1C4A;" d="M318.827,155.979c-1.861,11.595-12.569,25.683-12.569,25.683l-11.531,0.481l-0.949-9.569
								c0,0-5.063-3.633-4.899-11.025c0.177-7.177,4.519-11.405,4.785-11.658c-0.418,0.203-10.671,5.266-20.848-0.418
								c-10.379-5.797-15.228-3.152-17.709,0.57c-2.291,3.418-0.101,8.962-0.101,8.962s-4.772-0.747-5.443-7.101
								c1,1.481,2.24,0.81,3.291-2.101c2.063-5.759,3.835-8.519,9.43-7.835c5.43,0.671,11.063,5.165,11.417,5.443
								c-0.139-0.291-2.544-4.899-5.81-7.127c0,0,9.05,1,13.038,5.987c3.987,4.987,2.608-4.063-1.608-6.911
								c0,0,7.506-2.291,13.645,3.456c5.962,5.595,12.709,0.101,13.101-0.215c-0.304,0.291-5.62,5.532-4.354,14.101
								C302.751,163.751,314.042,162.954,318.827,155.979z"/>
							<path style="opacity:0.7;fill:#FFFFFF;" d="M318.991,150.967c-0.57-1.595-2.329-5.494-6.544-7.861
								c-5.164-2.899-10.316,0.114-10.759,0.392l2.025-1.62c-0.165-3.747-3.595-8.645-9.557-9.215
								c-5.962-0.582-10.696,3.177-10.696,3.177s-3.266-1.544-9.544-1.633c-6.291-0.076-9.886,5.063-9.886,5.063l2.519,2.43
								c-0.367-0.139-7.164-2.835-12.253-1.886c3.772-2.177,8.443-1.063,8.443-1.063s2.683-8.848,19.531-5.443
								c0,0,8.962-4.114,15.747-1.215c6.797,2.911,7.038,8.24,7.038,8.24s9.569-3.468,13.456,8.329
								C318.751,149.397,318.915,150.169,318.991,150.967z"/>
						</g>
					</g>
					<g>
						<path style="fill:#DB9431;" d="M308.384,165.226h-8.334c0,0-6.214-28.823-25.04-33.13h6.498c6.227,0,12.53,3.309,16.662,8.953
							C301.843,146.066,305.744,153.717,308.384,165.226z"/>
						<g>
							<path style="fill:rgb(255, 89, 0)" d="M275.806,199.954h3.881c1.026,0,1.857-0.831,1.857-1.857v-0.987
								c0-1.026-0.832-1.857-1.857-1.857h-3.881c-1.026,0-1.857,0.831-1.857,1.857v0.987
								C273.949,199.123,274.781,199.954,275.806,199.954z"/>
							<g>
								<path style="fill:rgb(255, 89, 0)" d="M298.668,192.97l-3.349,3.568c-1.311,1.397-3.142,2.189-5.057,2.189h-10.409
									c-0.574,0-1.039-0.465-1.039-1.04c0-0.574,0.465-1.039,1.039-1.039h10.409c1.342,0,2.624-0.555,3.542-1.533l3.349-3.568
									c0.393-0.419,1.051-0.439,1.469-0.046C299.04,191.894,299.061,192.551,298.668,192.97L298.668,192.97z"/>
							</g>
						</g>
						<g>
							<path style="fill:rgb(255, 89, 0)" d="M301.693,164.786h4.564v1.189c4.099,2.232,6.97,7.375,6.97,13.367
								c0,5.992-2.871,11.134-6.97,13.367v1.189h-4.564c-6.37,0-11.534-6.517-11.534-14.556
								C290.159,171.303,295.323,164.786,301.693,164.786z"/>
							<ellipse style="fill:#DB9431;" cx="306.257" cy="179.342" rx="11.534" ry="14.556"/>
							<ellipse style="fill:rgb(255, 89, 0)" cx="306.257" cy="179.342" rx="7.71" ry="9.73"/>
						</g>
					</g>
				</g>
			</g>
			<g>
				<g>
					<g>
						<path style="fill:#CA404E;" d="M248.489,395.278H128.215c-2.247,0-4.068-1.821-4.068-4.068v-2.163
							c0-2.247,1.821-4.068,4.068-4.068h120.274c2.247,0,4.068,1.821,4.068,4.068v2.163
							C252.557,393.457,250.735,395.278,248.489,395.278z"/>
						<path style="fill:rgb(255, 89, 0)" d="M248.489,395.278h-34.752c-2.247,0-4.068-1.821-4.068-4.068v-2.163
							c0-2.247,1.821-4.068,4.068-4.068h34.752c2.247,0,4.068,1.821,4.068,4.068v2.163
							C252.557,393.457,250.735,395.278,248.489,395.278z"/>
					</g>
					<g>
						<g>
							<path style="fill:rgb(255, 89, 0)" d="M239.492,376.38H131.843c-2.793,0-5.058-2.265-5.058-5.058v-90.525
								c0-2.794,2.265-5.058,5.058-5.058h107.649c2.794,0,5.058,2.265,5.058,5.058v90.525
								C244.549,374.115,242.285,376.38,239.492,376.38z"/>
							<path style="fill:#CA404E;" d="M238.993,282.141v87.834c0,0.595-0.089,1.19-0.241,1.734
								c-0.759,2.696-3.228,4.671-6.164,4.671h-104.96c-3.544,0-6.405-2.861-6.405-6.405v-87.834c0-2.253,1.165-4.228,2.924-5.38
								c1-0.646,2.19-1.025,3.481-1.025h104.96C236.119,275.736,238.993,278.61,238.993,282.141z"/>
							<path style="opacity:0.3;fill:#4A6C8F;" d="M238.993,355.545v14.43c0,0.595-0.089,1.19-0.241,1.734
								c-0.759,2.696-3.228,4.671-6.164,4.671h-104.96c-3.544,0-6.405-2.861-6.405-6.405V289.23
								c11.253,24.076,41.417,64.012,116.53,66.277C238.17,355.532,238.575,355.545,238.993,355.545z"/>
							<path style="opacity:0.7;fill:#FFFFFF;" d="M238.993,282.141v87.834c0,0.595-0.089,1.19-0.241,1.734
								c-0.253-2.772-0.595-8.671-1-16.202c-1.215-22.658-2.873-60.062-3.367-71.201c-0.089-1.835-1.557-3.291-3.38-3.367
								l-106.859-4.177c1-0.646,2.19-1.025,3.481-1.025h104.96C236.119,275.736,238.993,278.61,238.993,282.141z"/>
						</g>
						<g>
							<path style="fill:rgb(255, 89, 0)" d="M199.804,391.663v3.616h-41.088v-6.058c0-1.118,0.424-2.2,1.215-2.991
								c9.412-9.424,10.52-30.118,10.533-39.119c0.004-2.389,1.932-4.324,4.321-4.324h10.054c2.384,0,4.324,1.926,4.321,4.31
								c-0.012,9.366-1.21,31.442-11.747,40.246h18.071C197.869,387.342,199.804,389.276,199.804,391.663z"/>
							<path style="fill:#CA404E;" d="M171.239,390.958v-1.741c0-1.118,0.424-2.2,1.215-2.991
								c9.411-9.425,10.515-30.136,10.527-39.129c0.003-2.384-1.938-4.31-4.321-4.31h-10.054c-2.389,0-4.317,1.935-4.32,4.324
								c-0.013,9.001-1.121,29.695-10.527,39.115c-0.79,0.791-1.215,1.873-1.215,2.991v1.741c0,2.386,1.934,4.321,4.321,4.321
								h10.054C169.305,395.279,171.239,393.344,171.239,390.958z"/>
						</g>
					</g>
				</g>
				<g>
					<path style="fill:#DB9431;" d="M431.305,403.905H77.897c-2.146,0-3.886-1.74-3.886-3.886v-2.066
						c0-2.146,1.74-3.886,3.886-3.886h353.409c2.146,0,3.886,1.74,3.886,3.886v2.066
						C435.192,402.165,433.452,403.905,431.305,403.905z"/>
					<path style="fill:rgb(255, 89, 0)" d="M431.305,403.905H276.712c-2.146,0-3.886-1.74-3.886-3.886v-2.066
						c0-2.146,1.74-3.886,3.886-3.886h154.593c2.146,0,3.886,1.74,3.886,3.886v2.066
						C435.192,402.165,433.452,403.905,431.305,403.905z"/>
				</g>
				<g>
					<path style="fill:#DB9431;" d="M374.986,367.409h-8.126l-2.228,16.734h10.354c3.532,0,6.405-2.861,6.405-6.405v-3.924
						C381.391,370.283,378.517,367.409,374.986,367.409z M377.504,376.954c0,2.127-1.721,3.848-3.835,3.848h-6.215l1.342-10.05
						h4.873c2.114,0,3.835,1.721,3.835,3.848V376.954z"/>
					<path style="fill:#DB9431;" d="M372.416,364.232c-0.24,6.126-1.519,20.658-7.962,29.835h-30.898
						c-2.456-3.506-4.165-7.81-5.342-12.114c-2.823-10.253-2.684-20.594-2.684-20.594h46.948
						C372.479,361.359,372.492,362.435,372.416,364.232z"/>
					<path style="opacity:0.3;fill:#DB9431;" d="M372.416,364.232c-0.24,6.126-1.519,20.658-7.962,29.835h-30.898
						c-2.456-3.506-4.165-7.81-5.342-12.114C348.758,389.776,367.074,374.738,372.416,364.232z"/>
				</g>
				<g>
					<g>
						<path style="fill:#CA404E;" d="M424.305,318.711l-2.044-0.291c-0.649-0.092-1.101-0.694-1.009-1.343l1.634-11.486
							c0.092-0.649,0.694-1.101,1.343-1.009l2.044,0.291c0.649,0.092,1.101,0.694,1.009,1.343l-1.634,11.486
							C425.556,318.352,424.955,318.804,424.305,318.711z"/>
						<path style="fill:#D6DD40;" d="M415.929,387.46l-4.799-0.683c-0.923-0.131-1.564-0.986-1.433-1.908l9.812-68.966
							c0.131-0.923,0.986-1.564,1.908-1.433l4.799,0.683c0.923,0.131,1.564,0.986,1.433,1.908l-9.812,68.966
							C417.706,386.95,416.852,387.592,415.929,387.46z"/>
						<path style="fill:#CA404E;" d="M429.558,317.788c0.87,0.124,1.474,0.929,1.35,1.798l-2.686,18.878l-1.767-0.251l2.405-16.905
							l-1.779-0.253l0.504-3.547L429.558,317.788z"/>
					</g>
					<g>
						
							<rect x="374.432" y="343.939" transform="matrix(0.124 -0.9923 0.9923 0.124 10.9909 708.8724)" style="fill:#6DA1A4;" width="65.1" height="8.544"/>
						<path style="fill:#CA404E;" d="M415.261,316.438l-8.475-1.059l0.82-6.561c0.138-1.105,1.146-1.889,2.251-1.751l4.474,0.559
							c1.105,0.138,1.889,1.146,1.751,2.251L415.261,316.438z"/>
						
							<rect x="406.511" y="313.173" transform="matrix(0.124 -0.9923 0.9923 0.124 44.8878 685.7361)" style="fill:#DB9431;" width="8.633" height="8.544"/>
						
							<rect x="410.38" y="309.756" transform="matrix(0.124 -0.9923 0.9923 0.124 48.6538 683.169)" style="fill:#E9B469;" width="1.747" height="8.544"/>
						
							<rect x="376.247" y="345.995" transform="matrix(0.124 -0.9923 0.9923 0.124 14.7846 711.1761)" style="opacity:0.3;fill:#4A6C8F;" width="67.872" height="2.438"/>
						
							<rect x="370.028" y="345.386" transform="matrix(0.124 -0.9923 0.9923 0.124 10.1078 704.3241)" style="opacity:0.7;fill:#FFFFFF;" width="67.872" height="2.103"/>
					</g>
					<g>
						<path style="fill:#D6DD40;" d="M403.097,317.279l-2.057,0.175c-0.654,0.055-1.228-0.429-1.284-1.083l-0.981-11.56
							c-0.055-0.654,0.429-1.228,1.083-1.284l2.057-0.175c0.654-0.056,1.229,0.429,1.284,1.083l0.981,11.56
							C404.235,316.649,403.75,317.224,403.097,317.279z"/>
						<path style="fill:#CA404E;" d="M410.341,386.157l-4.83,0.41c-0.928,0.079-1.745-0.61-1.824-1.538l-5.893-69.411
							c-0.079-0.928,0.61-1.745,1.538-1.824l4.83-0.41c0.929-0.079,1.745,0.61,1.824,1.539l5.893,69.41
							C411.958,385.261,411.269,386.078,410.341,386.157z"/>
						<path style="fill:#D6DD40;" d="M408.008,315.202c0.875-0.074,1.645,0.575,1.719,1.45l1.613,18.999l-1.778,0.151l-1.445-17.014
							l-1.791,0.152l-0.303-3.569L408.008,315.202z"/>
					</g>
					<g>
						
							<rect x="388.553" y="317.361" transform="matrix(0.9948 -0.1015 0.1015 0.9948 -33.496 41.691)" style="fill:#6DA1A4;" width="8.544" height="65.1"/>
						<path style="fill:#CA404E;" d="M393.773,317.091l-8.497,0.867l-0.671-6.578c-0.113-1.108,0.693-2.097,1.801-2.21l4.485-0.458
							c1.108-0.113,2.097,0.693,2.21,1.801L393.773,317.091z"/>
						
							<rect x="385.405" y="314.749" transform="matrix(0.9948 -0.1015 0.1015 0.9948 -30.3814 41.2132)" style="fill:#DB9431;" width="8.544" height="8.633"/>
						
							<rect x="385.056" y="314.767" transform="matrix(0.9948 -0.1016 0.1016 0.9948 -30.0421 41.1702)" style="fill:#E9B469;" width="8.544" height="1.747"/>
						
							<rect x="394.503" y="314.286" transform="matrix(0.9948 -0.1015 0.1015 0.9948 -33.3094 41.9761)" style="opacity:0.3;fill:#4A6C8F;" width="2.438" height="67.872"/>
						
							<rect x="388.435" y="314.922" transform="matrix(0.9948 -0.1015 0.1015 0.9948 -33.4062 41.3464)" style="opacity:0.7;fill:#FFFFFF;" width="2.103" height="67.872"/>
					</g>
					<g>
						<polygon style="fill:#CA404E;" points="424.826,344.14 424.117,353.305 420.965,394.152 390.206,394.152 389.219,381.355 
							387.042,353.305 386.333,344.14 						"/>
						<polygon style="fill:#DB9431;" points="424.826,344.14 424.117,353.305 387.042,353.305 386.333,344.14 						"/>
						<path style="opacity:0.3;fill:#4A6C8F;" d="M424.826,344.14l-0.709,9.164l-3.152,40.847h-30.759l-0.987-12.797
							c22.291-0.025,30.24-27.038,32.442-37.215H424.826z"/>
					</g>
				</g>
			</g>
		</g>
	</g>
</g>
</svg>
