<?xml version="1.0" encoding="utf-8"?>
<!-- Generator: Adobe Illustrator 27.5.0, SVG Export Plug-In . SVG Version: 6.00 Build 0)  -->
<svg version="1.1" xmlns="http://www.w3.org/2000/svg" xmlns:xlink="http://www.w3.org/1999/xlink" x="0px" y="0px"
	 viewBox="0 0 600 500" style="enable-background:new 0 0 600 500;" xml:space="preserve">
<g id="BACKGROUND">
	<path style="opacity:0.2;fill:#4F4BAB;" d="M499.841,122.268c-0.855,1.505-2.762,1.959-4.182,0.969
		c-5.536-3.864-11.178-8.72-16.324-14.782c-0.069-0.083-0.146-0.164-0.214-0.247c-0.069-0.082-0.135-0.173-0.203-0.256
		c-5.005-6.178-8.734-12.621-11.507-18.776c-0.711-1.579,0.088-3.369,1.725-3.931c1.453-0.499,2.86-1.19,4.184-2.077
		c0.836-0.561,1.256-1.578,1.169-2.581l-2.31-26.742c-0.086-1-0.67-1.925-1.587-2.332c-6.102-2.707-13.466-1.945-18.953,2.605
		c-4.37,3.624-6.593,8.866-6.55,14.132l-0.007,0.006c0.001,0.018,0.004,0.035,0.005,0.053c0,0.021-0.003,0.042-0.002,0.063
		c0.015,0.716,0.204,6.57,2.106,14.874c3.341,15.538,9.904,27.572,17.661,36.795c7.629,9.329,18.241,18.006,32.892,24.163
		c7.809,3.405,13.527,4.675,14.228,4.822c0.021,0.004,0.042,0.005,0.062,0.009c0.018,0.005,0.034,0.01,0.051,0.015l0.007-0.006
		c5.167,1.016,10.73-0.198,15.1-3.822c5.487-4.55,7.598-11.646,6.066-18.144c-0.23-0.977-1.032-1.721-1.998-1.991l-25.853-7.217
		c-0.97-0.271-2.048-0.046-2.753,0.672C501.54,119.678,500.601,120.932,499.841,122.268z"/>
	<g>
		<g>
			<g>
				<path style="fill:none;stroke:#5FCC7B;stroke-miterlimit:10;" d="M361.158,83.992c4.235,0,4.235,6.102,8.47,6.102
					c4.236,0,4.236-6.102,8.472-6.102c4.238,0,4.238,6.102,8.475,6.102c4.236,0,4.236-6.102,8.473-6.102
					c4.239,0,4.239,6.102,8.478,6.102s4.239-6.102,8.479-6.102"/>
			</g>
			<g>
				<path style="fill:none;stroke:#5FCC7B;stroke-miterlimit:10;" d="M521.477,163.653c4.235,0,4.235,6.102,8.47,6.102
					c4.236,0,4.236-6.102,8.472-6.102c4.238,0,4.238,6.102,8.475,6.102c4.236,0,4.236-6.102,8.473-6.102
					c4.239,0,4.239,6.102,8.479,6.102c4.239,0,4.239-6.102,8.479-6.102"/>
			</g>
			<g>
				<path style="fill:none;stroke:#5FCC7B;stroke-miterlimit:10;" d="M133.144,42.521c4.235,0,4.235,6.102,8.47,6.102
					c4.236,0,4.236-6.102,8.472-6.102c4.238,0,4.238,6.102,8.475,6.102c4.236,0,4.236-6.102,8.473-6.102
					c4.239,0,4.239,6.102,8.479,6.102c4.239,0,4.239-6.102,8.479-6.102"/>
			</g>
			<g>
				<path style="fill:none;stroke:#5FCC7B;stroke-miterlimit:10;" d="M16.903,183.291c4.235,0,4.235,6.102,8.47,6.102
					c4.236,0,4.236-6.102,8.473-6.102c4.238,0,4.238,6.102,8.475,6.102c4.236,0,4.236-6.102,8.473-6.102
					c4.239,0,4.239,6.102,8.478,6.102s4.239-6.102,8.478-6.102"/>
			</g>
		</g>
		<g>
			<path style="fill:none;stroke:#FFEB54;stroke-miterlimit:10;" d="M60.83,96.588c0,1.508-1.223,2.731-2.731,2.731
				c-1.508,0-2.731-1.223-2.731-2.731c0-1.508,1.223-2.731,2.731-2.731C59.607,93.857,60.83,95.08,60.83,96.588z"/>
			<path style="fill:none;stroke:#FFEB54;stroke-miterlimit:10;" d="M535.117,80.546c0,1.509-1.223,2.731-2.731,2.731
				c-1.508,0-2.731-1.223-2.731-2.731c0-1.508,1.223-2.731,2.731-2.731C533.894,77.815,535.117,79.038,535.117,80.546z"/>
			<path style="fill:none;stroke:#FFEB54;stroke-miterlimit:10;" d="M549.632,240.792c0,1.508-1.223,2.731-2.731,2.731
				c-1.508,0-2.731-1.223-2.731-2.731c0-1.508,1.223-2.731,2.731-2.731C548.409,238.06,549.632,239.283,549.632,240.792z"/>
			<path style="fill:none;stroke:#FFEB54;stroke-miterlimit:10;" d="M392.044,34.72c0,1.508-1.223,2.731-2.731,2.731
				c-1.509,0-2.731-1.223-2.731-2.731c0-1.508,1.223-2.731,2.731-2.731C390.822,31.989,392.044,33.212,392.044,34.72z"/>
			<path style="fill:none;stroke:#FFEB54;stroke-miterlimit:10;" d="M193.805,84.311c0,1.508-1.223,2.731-2.731,2.731
				c-1.508,0-2.731-1.223-2.731-2.731c0-1.508,1.223-2.731,2.731-2.731C192.582,81.58,193.805,82.803,193.805,84.311z"/>
		</g>
	</g>
</g>
<g id="OBJECTS">
	<g>
		<path style="fill:#D1D1D1;" d="M532.694,456.662c0,3.766-104.121,6.818-232.562,6.818S67.57,460.427,67.57,456.662
			c0-3.766,104.121-6.818,232.562-6.818S532.694,452.896,532.694,456.662z"/>
	</g>
	<g>
		<g>
			<path style="fill:none;stroke:#5FCC7B;stroke-miterlimit:10;" d="M71.687,319.233c0,0,31.873,13.189,55.081,61.794"/>
			<path style="fill:none;stroke:#5FCC7B;stroke-miterlimit:10;" d="M78.612,283.674c0,0,13.882,30.989,25.394,61.832"/>
			<g>
				<path style="fill:#5FCC7B;" d="M91.481,332.12c0,0-9.179-49.416-67.126-45.941C24.355,286.179,27.134,337.09,91.481,332.12z"/>
				<path style="fill:#518F65;" d="M24.355,286.179c34.388,19.317,67.126,45.941,67.126,45.941
					C27.134,337.09,24.355,286.179,24.355,286.179z"/>
			</g>
			<g>
				<path style="fill:#5FCC7B;" d="M82.443,293.855c0,0,10.706-27.573-19.371-43.775C63.072,250.081,48.7,276.42,82.443,293.855z"/>
				<path style="fill:#518F65;" d="M63.072,250.081c11.229,20.314,19.371,43.775,19.371,43.775
					C48.7,276.42,63.072,250.081,63.072,250.081z"/>
			</g>
		</g>
		<g>
			<path style="fill:#5FCC7B;" d="M122.128,384.915c0,0-11.693-42.232-61.764-34.851C60.364,350.064,66.61,394.076,122.128,384.915z
				"/>
			<path style="fill:#518F65;" d="M60.364,350.064c31.323,14.19,61.764,34.851,61.764,34.851
				C66.61,394.076,60.364,350.064,60.364,350.064z"/>
		</g>
	</g>
	<g>
		<g>
			<path style="fill:none;stroke:#5FCC7B;stroke-miterlimit:10;" d="M521.733,350.46c0,0-31.873,13.189-55.081,61.794"/>
			<path style="fill:none;stroke:#5FCC7B;stroke-miterlimit:10;" d="M514.809,314.901c0,0-13.882,30.989-25.394,61.832"/>
			<g>
				<path style="fill:#5FCC7B;" d="M501.939,363.347c0,0,9.179-49.416,67.126-45.941
					C569.065,317.406,566.286,368.317,501.939,363.347z"/>
				<path style="fill:#518F65;" d="M569.065,317.406c-34.388,19.317-67.126,45.941-67.126,45.941
					C566.286,368.317,569.065,317.406,569.065,317.406z"/>
			</g>
			<g>
				<path style="fill:#5FCC7B;" d="M510.978,325.083c0,0-10.706-27.573,19.371-43.775
					C530.348,281.308,544.72,307.647,510.978,325.083z"/>
				<path style="fill:#518F65;" d="M530.348,281.308c-11.229,20.314-19.371,43.775-19.371,43.775
					C544.72,307.647,530.348,281.308,530.348,281.308z"/>
			</g>
		</g>
		<g>
			<path style="fill:#5FCC7B;" d="M471.292,416.142c0,0,11.693-42.232,61.764-34.851
				C533.056,381.291,526.81,425.303,471.292,416.142z"/>
			<path style="fill:#518F65;" d="M533.056,381.291c-31.323,14.19-61.764,34.851-61.764,34.851
				C526.81,425.303,533.056,381.291,533.056,381.291z"/>
		</g>
	</g>
	<path style="fill:#362B75;" d="M489.293,423.595H110.883c-5.169,0-9.36-4.191-9.36-9.36V131.908c0-5.169,4.191-9.36,9.36-9.36
		h378.409c5.169,0,9.36,4.191,9.36,9.36v282.328C498.653,419.404,494.462,423.595,489.293,423.595z"/>
	<path style="fill:#4F4BAB;" d="M520.617,455.926H79.559c-6.499,0-11.768-5.269-11.768-11.768v-19.483
		c0-3.97,3.218-7.188,7.188-7.188h450.218c3.97,0,7.188,3.218,7.188,7.188v19.483C532.386,450.657,527.117,455.926,520.617,455.926z
		"/>
	<path style="fill:#1F1842;" d="M338.423,429.853h-76.669c-2.116,0-3.832-1.715-3.832-3.831v-8.684h84.332v8.684
		C342.254,428.137,340.539,429.853,338.423,429.853z"/>
	<rect x="127.024" y="143.776" style="fill:#1F1842;" width="346.128" height="252.413"/>
	<g>
		
			<ellipse transform="matrix(0.2256 -0.9742 0.9742 0.2256 134.0914 589.931)" style="fill:#FFFFFF;" cx="438.107" cy="210.623" rx="44.007" ry="44.006"/>
		<g>
			<path style="fill:#5FCC7B;" d="M434.126,186.509c-10.693,2.286-18.52,11.959-18.584,22.894
				c-0.029,4.943,1.427,9.479,3.917,13.241l-1.599,9.888c-0.135,0.838,0.671,1.518,1.474,1.243l9.125-3.122
				c4.639,2.371,10.111,3.278,15.773,2.058c10.434-2.248,18.215-11.505,18.585-22.173
				C463.355,195.035,449.328,183.259,434.126,186.509z"/>
			<g>
				<path style="fill:#FFFFFF;" d="M449.53,212.119c-1.224,0-2.216-0.992-2.216-2.216c0-1.224,0.992-2.217,2.216-2.217
					c1.224,0,2.216,0.992,2.216,2.217C451.747,211.126,450.754,212.119,449.53,212.119z"/>
				<path style="fill:#FFFFFF;" d="M439.186,212.119c-1.224,0-2.217-0.992-2.217-2.216c0-1.224,0.992-2.217,2.217-2.217
					c1.224,0,2.216,0.992,2.216,2.217C441.403,211.126,440.411,212.119,439.186,212.119z"/>
				<path style="fill:#FFFFFF;" d="M428.843,212.119c-1.224,0-2.216-0.992-2.216-2.216c0-1.224,0.992-2.217,2.216-2.217
					c1.224,0,2.217,0.992,2.217,2.217C431.059,211.126,430.067,212.119,428.843,212.119z"/>
			</g>
		</g>
	</g>
	<g>
		<g>
			<g>
				<g>
					<g>
						<path style="fill:#FFBFA6;" d="M121.119,204.187c0,0,4.051-22.854,30.837-13.093l6.472,21.151l0.375,14.756l-21.385,8.191
							c0,0-8.711-10.787-11.574-17.451C122.983,211.078,121.119,204.187,121.119,204.187z"/>
						<path style="fill:#FFBFA6;" d="M136.838,203.288c0,0-4.399-21.208-6.49-29.098s-6.446-19.26-4.281-20.089
							c2.166-0.829,4.187-2.845,9.285,12.895c5.098,15.741,12.054,38.763,12.054,38.763L136.838,203.288z"/>
						<path style="fill:#FFBFA6;" d="M127.41,210.44c0,0-2.178-21.443-3.262-29.534c-1.083-8.091-3.975-19.917-1.723-20.468
							c2.253-0.551,4.511-2.297,7.591,13.96c3.08,16.257,7.567,39.82,7.567,39.82L127.41,210.44z"/>
						<path style="fill:#FFBFA6;" d="M121.674,205.546c-0.27-0.361-0.448-0.777-0.521-1.222c-0.284-1.738-1.055-6.632-1.701-12.365
							c-0.761-6.752-4.476-20.605-2.601-21.063c1.875-0.459,5.181,1.81,7.745,15.341c2.564,13.531,5.112,30.047,5.112,30.047
							L121.674,205.546z"/>
						<path style="fill:#FFBFA6;" d="M147.99,203.759c0,0-4.548-15.995-7.298-23.137c-2.751-7.142-9.39-21.018-7.456-22.011
							c1.934-0.993,3.613-3.078,9.964,11.075c6.351,14.153,14.892,35.301,14.892,35.301L147.99,203.759z"/>
						<path style="fill:#FFBFA6;" d="M141.339,186.929c0,0,1.958,3.441,2.538-0.972l2.395,3.972l-4.811-0.252L141.339,186.929z"/>
						<path style="fill:#FFBFA6;" d="M132.21,188.997c0,0,1.487,2.515,2.067-1.898l2.394,3.972l-4.34,0.673L132.21,188.997z"/>
						<path style="fill:none;stroke:#D17C6B;stroke-width:2;stroke-miterlimit:10;" d="M124.836,187.553
							c0,0,1.017,4.482,0.983,6.761"/>
						<path style="fill:none;stroke:#D17C6B;stroke-width:2;stroke-miterlimit:10;" d="M126.943,163.019c0,0,1.602,4.334,2.183,7.37
							"/>
						<path style="fill:none;stroke:#D17C6B;stroke-width:2;stroke-miterlimit:10;" d="M132.594,159.69c0,0,1.347,3.206,2.103,5.346
							c1.021,2.89,2.223,6.557,2.223,6.557"/>
					</g>
					<path style="fill:none;stroke:#D17C6B;stroke-width:2;stroke-miterlimit:10;" d="M123.975,196.769
						c0,0,6.548-10.796,23.04-8.308"/>
				</g>
				<path style="fill:#FFBFA6;" d="M158.804,227.001c0,0,3.995-3.925,4.637-9.35c0.641-5.425-1.289-16.211-2.428-21.213
					c-0.841-3.693-0.261-14.947-1.368-15.404c-2.768-1.141-7.119,6.094-5.758,14.378
					C155.247,203.697,158.804,227.001,158.804,227.001z"/>
				<path style="fill:none;stroke:#D17C6B;stroke-width:2;stroke-miterlimit:10;" d="M153.627,194.735c0,0-0.677,6.345-0.54,7.717
					c0.137,1.372-17.183,13.606-2.209,25.903"/>
			</g>
			<path style="fill:#FFBFA6;" d="M157.972,225.234c0,0,5.462,22.232,9.715,27.345c0,0-16.386,15.871-24.028,17.6
				c0,0-6.67-29.381-7.619-36.432C135.785,231.851,157.972,225.234,157.972,225.234z"/>
		</g>
		<g>
			<path style="fill:#FCB94E;" d="M345.167,178.634c0,0-8.43-12.694,0.926-25.389c0,0,11.018,2.462,11.021,12.563
				C357.117,178.634,345.167,178.634,345.167,178.634z"/>
			<ellipse style="fill:#1A1538;" cx="341.68" cy="166.07" rx="10.249" ry="17.618"/>
			<g>
				<path style="fill:#FCB94E;" d="M385.916,268.886c-0.465-6.119-3.759-11.696-8.943-14.979
					c-20.328-12.873-39.571-18.039-39.571-18.039c-46.584,7.413-78.049-2.694-78.049-2.694s-34.056,7.276-46.365,25.534
					l-29.777,39.325l-17.839-62.542l-33.115,7.969l22.42,98.8c2.358,7.374,8.482,12.914,16.039,14.531
					c0.093,0.02,0.188,0.04,0.283,0.059c7.686,1.537,15.603-1.214,20.679-7.187l46.761-50.115l68.217,83.836l42.321-66.724
					l10.5,56.928l-0.077,22.601h31.965l2.597-21.335L385.916,268.886z"/>
				<g>
					<g>
						<path style="fill:#FFFFFF;" d="M328.759,221.538c0,0-15.232-7.512-56.986-2.125l31.488,32.48L328.759,221.538z"/>
						<path style="fill:#FFBFA6;" d="M278.759,219.143V156.1h36.537v58.486c0,3.845,2.117,7.372,5.519,9.165
							c10.332,5.445,4.941,43.164-25.11,34.307c-7.234-2.132-36.997-21.294-21.96-30.037
							C276.886,226.195,278.759,222.777,278.759,219.143z"/>
						<path style="opacity:0.25;fill:#8C533C;" d="M315.296,206.355c0,0-21.35-6.238-34.095-18.112c0,0-2.731,25.277,34.095,27.485
							V206.355z"/>
						<path style="fill:#FFBFA6;" d="M295.805,101.066c28.136-4.947,43.433,2.905,47.969,28.705c0,0-0.522,22.732-0.349,24.085
							c0.023,0.178,6.696,29.451-17.771,54.637c-2.964,3.051-8.891,2.702-12.436,2.121c-32.918-5.396-38.209-36.833-38.209-36.833
							c-0.694-2.063-16.159-17.445-16.546-19.645C253.927,128.336,267.669,106.014,295.805,101.066z"/>
						<path style="fill:#8C533C;" d="M323.14,115.415c0,0,2.487,24.059-41.986,29.968c0,0-1.956,35.788-2.396,45.951
							c0,0-22.603-9.069-23.49-45.951c-0.766-31.878,36.012-50.885,55.726-47.649c19.714,3.236,49.827,10.175,32.806,51.902
							C343.801,149.635,333.922,118.422,323.14,115.415z"/>
						<g>
							<path style="fill:#FFBFA6;" d="M262.861,172.429c1.655,7.566,8.536,12.488,15.371,10.993
								c6.834-1.495,11.033-8.84,9.378-16.406c-1.655-7.566-8.537-12.488-15.371-10.993
								C265.405,157.517,261.206,164.863,262.861,172.429z"/>
						</g>
						<g>
							<path style="fill:#FFFFFF;" d="M270.18,231.848c0,0,23.756,15.256,58.678,0l-29.339,60.91L270.18,231.848z"/>
						</g>
						<g>
							<g>
								<polygon style="fill:#080399;" points="295.186,254.906 305.361,254.906 309.193,272.947 299.497,292.758 289.611,272.235 
																	"/>
								<path style="opacity:0.25;fill:#38261F;" d="M304.926,262.798c0.932-0.01,1.236-0.312,1.9-0.941l-1.495-7.352h-9.993
									l-2.518,7.651c0.635,0.483,1.403,0.763,2.222,0.754L304.926,262.798z"/>
								<path style="fill:#080399;" d="M288.141,244.44l3.439,13.054c0.467,1.773,1.977,2.989,3.686,2.97l9.884-0.112
									c1.723-0.02,3.216-1.289,3.636-3.09l3.061-13.128c0.605-2.597-1.232-5.11-3.716-5.081l-16.384,0.185
									C289.249,239.267,287.459,241.849,288.141,244.44z"/>
							</g>
							<path style="fill:#4F4BAB;" d="M308.283,250.705c-0.353,4.015-2.225,7.107-4.181,6.908c-1.956-0.2-3.256-3.616-2.903-7.631
								c0.353-4.015,2.225-7.107,4.181-6.907C307.336,243.274,308.636,246.69,308.283,250.705z"/>
						</g>
						<path style="opacity:0.25;fill:#38261F;" d="M270.18,231.848l29.339,60.91l29.339-60.91
							C293.151,247.89,270.18,231.848,270.18,231.848z M299.429,288.267l-19.246-43.578l19.796-0.818l19.058,2.186L299.429,288.267z
							"/>
					</g>
					<g>
						<path style="fill:#FFFFFF;" d="M328.759,221.538c0,0-16.028,13.312-29.963,17.206c0,0,22.197,16.734,23.905,22.028
							c1.708,5.293,15.838-24.689,15.838-24.689S337.065,228.324,328.759,221.538z"/>
					</g>
					<g>
						<path style="fill:#FFFFFF;" d="M271.773,219.413c0,0,13.408,14.424,27.023,19.331c0,0-23.352,15.061-25.44,20.215
							c-2.088,5.154-14.005-25.785-14.005-25.785S262.998,225.572,271.773,219.413z"/>
					</g>
					<path style="opacity:0.17;fill:#080399;" d="M285.643,238.73c0.707-1.135,2.008-1.704,3.312-1.454
						c3.141,0.601,6.469,1.118,9.892,1.47c3.988,0.41,7.993,0.238,11.736-0.241c1.32-0.169,2.606,0.456,3.254,1.63l7.426,13.427
						c1.32,2.387,1.966,5.096,1.866,7.829l0,0l-23.74-18.531l-26.704,16.656L285.643,238.73z"/>
				</g>
				<polygon style="fill:#FCB94E;" points="238.911,396.19 357.969,396.19 351.929,361.996 368.505,295.255 224.801,295.255 
					244.688,364.575 				"/>
				<g style="opacity:0.17;">
					<path style="fill:#080399;" d="M228.293,299.42l-0.056-0.412C228.237,299.008,228.256,299.155,228.293,299.42z"/>
					<path style="fill:#080399;" d="M341.68,349.498c-15.156,2.56-26.779-5.304-39.641-5.863
						c-12.861-0.56-19.425,7.831-43.548,5.863c-22.829-1.862-19.839-44.811-20.494-49.479l-9.048,9.698l15.739,54.858l-0.93,5.087
						c58.281-26.027,87.134-10.168,109.549,0.136l-1.378-7.803l8.256-33.241l0.51-6.993
						C360.695,321.761,354.653,347.307,341.68,349.498z"/>
				</g>
			</g>
			<path style="fill:#8C533C;" d="M274.442,129.597c8.05-6.38,9.996-17.823,5.331-28.913c-1.813-4.309-10.494-18.289-26.829-15.928
				c-19.531,2.823-26.163,23.377-21.176,38.453C236.441,137.338,262.903,138.743,274.442,129.597z"/>
			<path style="fill:none;stroke:#8C533C;stroke-width:2;stroke-miterlimit:10;" d="M277.613,111.505
				c0,0,10.357-23.458-14.21-30.959"/>
			<path style="fill:none;stroke:#8C533C;stroke-width:2;stroke-miterlimit:10;" d="M319.037,109.623
				c0,0,9.326,33.127-33.981,41.413"/>
			<path style="fill:#8C533C;" d="M329.342,140.043c0,0,1.293-2.496,6.288-2.273c3.321,0.148,5.352,2.765,4.727,3.568
				C339.733,142.141,327.739,141.875,329.342,140.043z"/>
			<path style="fill:#8C533C;" d="M297.621,142.78c0,0,0.948-2.647,5.928-3.093c3.311-0.297,5.673,2.025,5.162,2.904
				S296.278,144.81,297.621,142.78z"/>
			<g>
				<path style="fill:none;stroke:#D17C6B;stroke-width:2;stroke-miterlimit:10;" d="M323.555,149.259c0,0-0.114,6.519,4.171,12.637
					c1.763,2.517,4.273,5.899-4.171,9.131"/>
				<path style="fill:#38261F;" d="M302.356,158.622c0.322,1.471,1.277,2.511,2.134,2.324c0.857-0.187,1.291-1.532,0.97-3.003
					c-0.322-1.471-1.277-2.511-2.135-2.324C302.468,155.807,302.034,157.151,302.356,158.622z"/>
				<path style="fill:#38261F;" d="M332.962,154.714c0.293,1.34,1.164,2.289,1.945,2.118c0.781-0.171,1.177-1.396,0.884-2.736
					c-0.293-1.34-1.164-2.288-1.945-2.118C333.064,152.148,332.668,153.373,332.962,154.714z"/>
				<path style="fill:none;stroke:#D17C6B;stroke-width:2;stroke-miterlimit:10;" d="M325.491,182.84c0,0-9.827,4.042-21.009-5.576"
					/>
				<circle style="fill:none;stroke:#FFFFFF;stroke-width:2;stroke-miterlimit:10;" cx="304.636" cy="158.282" r="10.632"/>
				<path style="fill:none;stroke:#FFFFFF;stroke-width:2;stroke-miterlimit:10;" d="M327.476,155.055
					c0.655,5.309,4.926,9.152,9.539,8.583c4.613-0.569,7.822-5.335,7.167-10.644c-0.655-5.31-4.926-9.153-9.539-8.583
					C330.03,144.98,326.821,149.745,327.476,155.055z"/>
				
					<line style="fill:none;stroke:#FFFFFF;stroke-width:2;stroke-miterlimit:10;" x1="294.004" y1="160.44" x2="276.884" y2="158.282"/>
				<path style="fill:none;stroke:#FFFFFF;stroke-width:2;stroke-miterlimit:10;" d="M327.476,155.055c0,0-8.676-2.403-12.209,2.029
					"/>
			</g>
		</g>
		<path style="fill:#1A1538;" d="M281.262,168.913c0,10.32-3.367,18.686-9.489,18.686c-7.084,0-11.51-5.997-12.681-18.686
			c-0.948-10.276,4.963-18.686,11.085-18.686S281.262,158.593,281.262,168.913z"/>
		<g>
			<path style="fill:#1A1538;" d="M265.704,155.899c-0.706-3.749-0.99-7.29-1.101-10.951c-0.102-3.634,0.069-7.278,0.54-10.894
				c0.936-7.203,3.144-14.426,7.339-20.519c2.077-3.039,4.621-5.752,7.501-8.016c2.879-2.282,6.156-3.957,9.501-5.315
				c6.779-2.572,13.985-3.503,21.081-3.463l0.019,1.143c-6.993,0.276-13.97,1.53-20.293,4.266c-3.115,1.437-6.111,3.144-8.676,5.379
				c-2.569,2.219-4.783,4.811-6.559,7.681c-3.585,5.745-5.332,12.497-5.901,19.278c-0.286,3.4-0.292,6.831-0.04,10.244
				c0.116,1.707,0.309,3.408,0.541,5.098c0.243,1.668,0.548,3.413,0.919,4.941L265.704,155.899z"/>
		</g>
		<path style="fill:#FCB94E;" d="M268.766,156.224c0,0,9.452,11.953,1.179,25.378c0,0-11.184-1.541-12.023-11.608
			C256.857,157.214,268.766,156.224,268.766,156.224z"/>
		<path style="fill:none;stroke:#A66E37;stroke-width:2;stroke-miterlimit:10;" d="M355.033,349.498c0,0,9.791-35.738,5.734-50.491"
			/>
		
			<line style="fill:none;stroke:#A66E37;stroke-width:2;stroke-miterlimit:10;" x1="230.175" y1="308.404" x2="237.998" y2="299.008"/>
		<g>
			<path style="fill:#FFFFFF;" d="M169.155,246.708l-34.587,9.463c-0.977,0.267-1.985-0.308-2.253-1.285l-3.615-13.214
				c-0.267-0.977,0.308-1.986,1.285-2.253l34.587-9.464c0.977-0.267,1.985,0.308,2.253,1.285l3.615,13.214
				C170.707,245.433,170.132,246.441,169.155,246.708z"/>
		</g>
		<path style="fill:none;stroke:#A66E37;stroke-width:2;stroke-miterlimit:10;" d="M183.21,298.033c0,0-0.952,15.69-5.009,26.22"/>
		<path style="fill:#FFEB54;" d="M263.951,168.118c0,3.949-1.222,7.15-2.73,7.15c-1.508,0-2.73-3.201-2.73-7.15
			s1.222-7.15,2.73-7.15C262.729,160.967,263.951,164.169,263.951,168.118z"/>
		<path style="fill:none;stroke:#36302D;stroke-width:2;stroke-miterlimit:10;" d="M266.77,116.091c0,0-8.651,7.375-10.551,19.262"
			/>
	</g>
	<path style="fill:none;stroke:#A66E37;stroke-width:2;stroke-miterlimit:10;" d="M220.15,301.233"/>
	<g>
		<path style="fill:#FFFFFF;" d="M244.705,376.733h-95.656c-2.253,0-4.08-1.826-4.08-4.08v-32.278c0-2.253,1.826-4.08,4.08-4.08
			h95.656c2.253,0,4.08,1.826,4.08,4.08v32.278C248.784,374.907,246.958,376.733,244.705,376.733z"/>
		<g>
			<path style="fill:#4F4BAB;" d="M235.445,353.875h-52.458c-1.335,0-2.418-1.082-2.418-2.418v-0.118
				c0-1.335,1.082-2.418,2.418-2.418h52.458c1.335,0,2.418,1.082,2.418,2.418v0.118C237.863,352.793,236.78,353.875,235.445,353.875
				z"/>
			<path style="fill:#4F4BAB;" d="M235.445,365.678h-52.458c-1.335,0-2.418-1.082-2.418-2.418v-0.118
				c0-1.335,1.082-2.418,2.418-2.418h52.458c1.335,0,2.418,1.082,2.418,2.418v0.118C237.863,364.595,236.78,365.678,235.445,365.678
				z"/>
			<circle style="fill:#4F4BAB;" cx="163.636" cy="356.515" r="9.221"/>
		</g>
	</g>
	<g>
		<path style="fill:#FFFFFF;" d="M451.5,332.402h-95.656c-2.253,0-4.08-1.827-4.08-4.08v-32.278c0-2.253,1.826-4.08,4.08-4.08H451.5
			c2.253,0,4.08,1.827,4.08,4.08v32.278C455.579,330.576,453.753,332.402,451.5,332.402z"/>
		<g>
			<path style="fill:#4F4BAB;" d="M442.24,309.544h-52.458c-1.335,0-2.418-1.082-2.418-2.418v-0.118
				c0-1.335,1.082-2.418,2.418-2.418h52.458c1.335,0,2.418,1.082,2.418,2.418v0.118C444.658,308.462,443.575,309.544,442.24,309.544
				z"/>
			<path style="fill:#4F4BAB;" d="M442.24,321.346h-52.458c-1.335,0-2.418-1.082-2.418-2.418v-0.118
				c0-1.335,1.082-2.418,2.418-2.418h52.458c1.335,0,2.418,1.082,2.418,2.418v0.118C444.658,320.264,443.575,321.346,442.24,321.346
				z"/>
			<circle style="fill:#4F4BAB;" cx="370.431" cy="312.184" r="9.22"/>
		</g>
	</g>
	<g>
		<g>
			<path style="fill:#362B75;" d="M456.756,386.813h-70.311c-2.253,0-4.08-1.827-4.08-4.08v-17.044c0-2.253,1.827-4.08,4.08-4.08
				h70.311c2.253,0,4.08,1.827,4.08,4.08v17.044C460.835,384.986,459.009,386.813,456.756,386.813z"/>
			<g>
				<path style="fill:#FFEB54;" d="M413.657,368.631l1.295,2.624c0.052,0.106,0.153,0.179,0.27,0.196l2.896,0.421
					c0.294,0.043,0.412,0.404,0.199,0.612l-2.095,2.042c-0.085,0.082-0.123,0.201-0.103,0.318l0.495,2.884
					c0.05,0.293-0.257,0.517-0.521,0.378l-2.59-1.362c-0.104-0.055-0.229-0.055-0.334,0l-2.59,1.362
					c-0.263,0.138-0.571-0.085-0.521-0.378l0.495-2.884c0.02-0.116-0.019-0.235-0.103-0.318l-2.095-2.042
					c-0.213-0.208-0.095-0.569,0.199-0.612l2.896-0.421c0.117-0.017,0.218-0.09,0.27-0.196l1.295-2.624
					C413.145,368.364,413.525,368.364,413.657,368.631z"/>
				<path style="fill:#FFEB54;" d="M426.043,368.631l1.295,2.624c0.052,0.106,0.153,0.179,0.27,0.196l2.896,0.421
					c0.294,0.043,0.412,0.404,0.199,0.612l-2.095,2.042c-0.085,0.082-0.123,0.201-0.103,0.318l0.495,2.884
					c0.05,0.293-0.258,0.517-0.521,0.378l-2.59-1.362c-0.105-0.055-0.229-0.055-0.334,0l-2.59,1.362
					c-0.263,0.138-0.571-0.085-0.521-0.378l0.495-2.884c0.02-0.116-0.019-0.235-0.103-0.318l-2.095-2.042
					c-0.213-0.208-0.095-0.569,0.199-0.612l2.896-0.421c0.117-0.017,0.218-0.09,0.27-0.196l1.295-2.624
					C425.531,368.364,425.911,368.364,426.043,368.631z"/>
				<path style="fill:#FFEB54;" d="M438.428,368.631l1.295,2.624c0.052,0.106,0.153,0.179,0.27,0.196l2.896,0.421
					c0.294,0.043,0.412,0.404,0.199,0.612l-2.095,2.042c-0.085,0.082-0.123,0.201-0.103,0.318l0.495,2.884
					c0.05,0.293-0.258,0.517-0.521,0.378l-2.59-1.362c-0.105-0.055-0.229-0.055-0.334,0l-2.59,1.362
					c-0.263,0.138-0.571-0.085-0.521-0.378l0.495-2.884c0.02-0.116-0.019-0.235-0.103-0.318l-2.095-2.042
					c-0.213-0.208-0.095-0.569,0.199-0.612l2.895-0.421c0.117-0.017,0.218-0.09,0.27-0.196l1.295-2.624
					C437.916,368.364,438.297,368.364,438.428,368.631z"/>
				<path style="fill:#FFEB54;" d="M450.197,368.631l1.295,2.624c0.052,0.106,0.153,0.179,0.27,0.196l2.896,0.421
					c0.294,0.043,0.412,0.404,0.199,0.612l-2.095,2.042c-0.085,0.082-0.123,0.201-0.103,0.318l0.495,2.884
					c0.05,0.293-0.257,0.517-0.521,0.378l-2.59-1.362c-0.104-0.055-0.229-0.055-0.334,0l-2.59,1.362
					c-0.263,0.138-0.571-0.085-0.521-0.378l0.495-2.884c0.02-0.116-0.019-0.235-0.103-0.318l-2.095-2.042
					c-0.213-0.208-0.096-0.569,0.199-0.612l2.896-0.421c0.117-0.017,0.218-0.09,0.27-0.196l1.295-2.624
					C449.685,368.364,450.065,368.364,450.197,368.631z"/>
			</g>
		</g>
		<path style="fill:#5FCC7B;" d="M398.792,378.269c-0.154,0.27-0.496,0.352-0.751,0.174c-0.994-0.694-2.007-1.566-2.931-2.654
			c-0.012-0.015-0.026-0.03-0.038-0.044c-0.012-0.015-0.024-0.031-0.036-0.046c-0.899-1.109-1.568-2.266-2.066-3.371
			c-0.128-0.283,0.016-0.605,0.31-0.706c0.261-0.09,0.514-0.214,0.751-0.373c0.15-0.101,0.225-0.283,0.21-0.463l-0.415-4.801
			c-0.015-0.18-0.12-0.346-0.285-0.419c-1.095-0.486-2.418-0.349-3.403,0.468c-0.784,0.651-1.184,1.592-1.176,2.537l-0.001,0.001
			c0,0.003,0.001,0.006,0.001,0.009c0,0.004,0,0.008,0,0.011c0.003,0.129,0.037,1.18,0.378,2.671c0.6,2.79,1.778,4.95,3.171,6.606
			c1.37,1.675,3.275,3.233,5.905,4.338c1.402,0.611,2.428,0.839,2.554,0.866c0.004,0.001,0.008,0.001,0.011,0.002
			c0.003,0.001,0.006,0.002,0.009,0.003l0.001-0.001c0.928,0.182,1.926-0.036,2.711-0.686c0.985-0.817,1.364-2.091,1.089-3.257
			c-0.041-0.175-0.185-0.309-0.359-0.357l-4.642-1.296c-0.174-0.049-0.368-0.008-0.494,0.121
			C399.097,377.804,398.928,378.029,398.792,378.269z"/>
	</g>
	<g>
		
			<circle style="fill:none;stroke:#4F4BAB;stroke-width:2;stroke-linecap:round;stroke-miterlimit:10;" cx="204.421" cy="190.934" r="20.063"/>
		<circle style="fill:#4F4BAB;" cx="182.073" cy="208.238" r="2.385"/>
		
			<polyline style="fill:none;stroke:#4F4BAB;stroke-width:2;stroke-linecap:round;stroke-linejoin:round;stroke-miterlimit:10;" points="
			211.477,192.016 203.259,192.016 203.259,183.334 		"/>
		<path style="fill:none;stroke:#4F4BAB;stroke-width:2;stroke-linecap:round;stroke-miterlimit:10;" d="M204.421,162.492
			c15.708,0,28.442,12.734,28.442,28.442s-12.734,28.442-28.442,28.442c-8.61,0-16.326-3.826-21.542-9.869"/>
	</g>
	<path style="opacity:0.2;fill:#4F4BAB;" d="M116.324,69.079c-17.715,3.787-30.681,19.812-30.788,37.927
		c-0.049,8.189,2.363,15.704,6.489,21.936l-2.649,16.38c-0.224,1.388,1.112,2.515,2.442,2.06l15.117-5.172
		c7.684,3.927,16.749,5.43,26.13,3.41c17.286-3.723,30.176-19.06,30.789-36.732C164.746,83.203,141.508,63.695,116.324,69.079z
		 M107.572,111.505c-2.028,0-3.672-1.644-3.672-3.672c0-2.028,1.644-3.672,3.672-3.672c2.028,0,3.672,1.644,3.672,3.672
		C111.244,109.861,109.6,111.505,107.572,111.505z M124.707,111.505c-2.028,0-3.672-1.644-3.672-3.672
		c0-2.028,1.644-3.672,3.672-3.672c2.028,0,3.672,1.644,3.672,3.672C128.379,109.861,126.736,111.505,124.707,111.505z
		 M141.843,111.505c-2.028,0-3.672-1.644-3.672-3.672c0-2.028,1.644-3.672,3.672-3.672c2.028,0,3.672,1.644,3.672,3.672
		C145.515,109.861,143.872,111.505,141.843,111.505z"/>
</g>
</svg>
