<?xml version="1.0" encoding="utf-8"?>
<!-- Generator: Adobe Illustrator 27.5.0, SVG Export Plug-In . SVG Version: 6.00 Build 0)  -->
<svg version="1.1" id="_x39_" xmlns="http://www.w3.org/2000/svg" xmlns:xlink="http://www.w3.org/1999/xlink" x="0px" y="0px"
	 viewBox="0 0 515 515" style="enable-background:new 0 0 515 515;" xml:space="preserve">
<g>
	<g>
		<path style="fill:#F37422;" d="M106.369,273.764c16.473,48.793,118.547,117.696,172.787,99.385
			c54.242-18.313,40.111-116.905,23.638-165.698c-16.472-48.792-73.797-73.502-128.038-55.19
			C120.514,170.572,89.896,224.972,106.369,273.764z"/>
	</g>
	<g style="opacity:0.8;">
		<path style="fill:#FFC10D;" d="M264.47,185.58c-59.751,24.025-175.184,109.098-157.812,152.303
			c17.373,43.206,160.973,28.183,220.723,4.157c59.752-24.025,94.106-78.526,76.733-121.732
			C386.742,177.102,324.222,161.554,264.47,185.58z"/>
	</g>
	<g>
		<path style="fill:#231F20;" d="M87.285,265.219c0,47.865,65.24,86.667,145.718,86.667c80.478,0,225.639-58.045,188.848-132.414
			c-21.224-42.902-111.19-7.194-188.848-40.92C159.186,146.493,87.285,217.354,87.285,265.219z"/>
	</g>
	<g>
		<path style="fill:#231F20;" d="M365.018,182.167c-7.057,7.725-37.441,9.632-46.572,1.291c-9.131-8.341,6.449-23.771,13.507-31.497
			c7.057-7.725,20.18-7.226,29.311,1.115C370.394,161.418,372.074,174.442,365.018,182.167z"/>
	</g>
	<g>
		<path style="fill:#231F20;" d="M298.151,138.915c3.847,0.653,10.58,9.795,9.809,14.343c-0.771,4.547-8.757,2.778-12.604,2.125
			c-3.849-0.653-6.342-4.869-5.569-9.417C290.559,141.42,294.303,138.263,298.151,138.915z"/>
	</g>
	<g>
		<path style="fill:#231F20;" d="M105.255,318.887c8.88,1.507,25.777,14.628,24.788,20.456c-0.989,5.827-19.489,2.156-28.37,0.649
			c-8.88-1.507-15.277-7.453-14.288-13.281C88.374,320.883,96.375,317.381,105.255,318.887z"/>
	</g>
	<g>
		<path style="fill:#FFFFFF;" d="M188.79,253.328c-0.378,1.68-1.034,3.249-1.965,4.7c-0.936,1.45-2.054,2.713-3.348,3.794
			c-1.297,1.084-2.713,1.952-4.248,2.606c-1.531,0.66-3.114,1.06-4.734,1.204l-19.088,1.663l9.766-43.749l19.999-1.744
			c1.387-0.119,2.582,0.094,3.569,0.651c0.986,0.562,1.756,1.327,2.318,2.305c0.561,0.982,0.906,2.118,1.042,3.415
			c0.14,1.297,0.055,2.624-0.247,3.981c-0.485,2.178-1.438,4.232-2.85,6.167c-1.412,1.939-3.147,3.437-5.198,4.5
			c2.14,0.541,3.654,1.748,4.551,3.624C189.254,248.321,189.395,250.614,188.79,253.328z M183.861,252.792
			c0.217-0.987,0.273-1.931,0.153-2.824c-0.119-0.898-0.366-1.671-0.757-2.322c-0.391-0.651-0.918-1.148-1.582-1.493
			c-0.664-0.345-1.455-0.481-2.356-0.4l-14.384,1.255l-3.36,15.035l13.993-1.22c0.944-0.085,1.858-0.357,2.739-0.843
			c0.885-0.48,1.71-1.084,2.458-1.82c0.761-0.728,1.404-1.557,1.952-2.492C183.257,254.731,183.64,253.778,183.861,252.792z
			 M169.196,227.91l-3.258,14.601l12.802-1.119c0.902-0.076,1.778-0.34,2.616-0.799c0.846-0.46,1.612-1.038,2.309-1.744
			c0.693-0.702,1.301-1.514,1.816-2.424c0.519-0.91,0.889-1.858,1.11-2.845c0.23-1.025,0.294-1.982,0.191-2.862
			c-0.098-0.868-0.328-1.616-0.693-2.229c-0.362-0.612-0.868-1.072-1.527-1.378c-0.651-0.306-1.395-0.421-2.229-0.349
			L169.196,227.91z"/>
		<path style="fill:#FFFFFF;" d="M221.809,256.662l-1.102,4.934l-27.297,2.382l9.77-43.749l26.787-2.335l-1.097,4.925l-21.696,1.893
			l-3.164,14.172l18.859-1.646l-1.034,4.627l-18.859,1.646l-3.369,15.091L221.809,256.662z"/>
		<path style="fill:#FFFFFF;" d="M259.008,224.358c-0.323-0.536-0.8-1.038-1.442-1.505c-0.634-0.472-1.374-0.881-2.22-1.225
			c-0.847-0.353-1.799-0.612-2.858-0.778c-1.05-0.174-2.178-0.204-3.39-0.098c-3.135,0.272-5.576,1.11-7.307,2.509
			c-1.74,1.403-2.854,3.215-3.347,5.431c-0.268,1.191-0.281,2.157-0.043,2.905c0.242,0.74,0.744,1.348,1.505,1.829
			c0.766,0.481,1.765,0.864,2.99,1.161c1.233,0.294,2.705,0.587,4.411,0.881c1.969,0.31,3.726,0.71,5.257,1.204
			c1.544,0.489,2.799,1.157,3.777,1.995c0.979,0.842,1.629,1.91,1.952,3.211c0.314,1.306,0.255,2.939-0.183,4.913
			c-0.468,2.097-1.255,3.943-2.352,5.555c-1.098,1.604-2.407,2.965-3.934,4.087c-1.531,1.119-3.237,1.996-5.117,2.621
			c-1.876,0.625-3.857,1.033-5.933,1.212c-3.096,0.271-5.912,0.004-8.455-0.804c-2.539-0.804-4.721-2.114-6.533-3.926l3.479-4.899
			c0.447,0.651,1.072,1.28,1.884,1.893c0.804,0.612,1.761,1.144,2.862,1.595c1.102,0.442,2.322,0.778,3.662,1.003
			c1.336,0.23,2.777,0.276,4.326,0.141c2.871-0.251,5.219-1.004,7.056-2.246c1.837-1.25,2.998-2.981,3.496-5.202
			c0.272-1.229,0.251-2.246-0.068-3.041c-0.328-0.804-0.911-1.467-1.748-1.999c-0.847-0.527-1.944-0.965-3.288-1.31
			c-1.356-0.349-2.896-0.689-4.636-1.017c-1.922-0.357-3.585-0.778-4.997-1.254c-1.408-0.481-2.539-1.11-3.381-1.88
			c-0.847-0.77-1.399-1.753-1.65-2.935c-0.255-1.191-0.188-2.646,0.195-4.368c0.468-2.097,1.238-3.977,2.314-5.64
			c1.081-1.667,2.382-3.109,3.913-4.334c1.531-1.216,3.245-2.182,5.146-2.893c1.893-0.71,3.879-1.152,5.963-1.335
			c2.714-0.234,5.07,0,7.061,0.71c1.986,0.715,3.658,1.757,5.019,3.127L259.008,224.358z"/>
		<path style="fill:#FFFFFF;" d="M299.835,216.622l-13.875,1.212l-8.667,38.824l-5.1,0.442l8.667-38.824l-13.874,1.212l1.098-4.925
			l32.852-2.867L299.835,216.622z"/>
		<path style="fill:#FFFFFF;" d="M180.824,324.038l10.327-46.255l18.144-1.582c2.038-0.178,3.798,0.119,5.295,0.881
			c1.493,0.761,2.684,1.828,3.568,3.203c0.894,1.369,1.476,2.955,1.757,4.763c0.281,1.809,0.208,3.667-0.217,5.58
			c-0.46,2.042-1.225,4.02-2.297,5.946c-1.076,1.923-2.369,3.675-3.875,5.257c-1.505,1.579-3.198,2.876-5.07,3.888
			c-1.867,1.02-3.824,1.616-5.861,1.796l-8.621,0.753l-3.331,14.915L180.824,324.038z M196.055,298.952l8.026-0.701
			c1.157-0.103,2.275-0.732,3.356-1.898c1.08-1.156,1.855-2.772,2.318-4.857c0.247-1.089,0.323-2.016,0.238-2.769
			c-0.085-0.762-0.289-1.383-0.612-1.867c-0.323-0.484-0.74-0.82-1.238-1.008c-0.515-0.192-1.038-0.26-1.6-0.213l-7.664,0.672
			L196.055,298.952z"/>
		<path style="fill:#FFFFFF;" d="M218.129,320.78l10.327-46.254l19.165-1.673c1.999-0.174,3.739,0.124,5.231,0.886
			c1.498,0.765,2.697,1.833,3.603,3.202c0.906,1.369,1.501,2.956,1.787,4.76c0.28,1.808,0.209,3.666-0.221,5.58
			c-0.319,1.429-0.783,2.82-1.404,4.177c-0.608,1.352-1.348,2.641-2.207,3.866c-0.864,1.221-1.825,2.34-2.893,3.352
			c-1.067,1.004-2.216,1.885-3.436,2.629l5.504,16.384l-11.08,0.965l-4.814-14.206l-6.405,0.561l-3.331,14.917L218.129,320.78z
			 M233.365,295.694l8.983-0.787c1.157-0.098,2.292-0.787,3.39-2.055c1.106-1.263,1.871-2.832,2.288-4.699
			c0.425-1.914,0.285-3.39-0.421-4.435c-0.707-1.047-1.617-1.52-2.735-1.421l-8.681,0.757L233.365,295.694z"/>
		<path style="fill:#FFFFFF;" d="M258.251,317.28l10.326-46.255l9.821-0.859l-10.327,46.254L258.251,317.28z"/>
		<path style="fill:#FFFFFF;" d="M279.015,292.41c0.621-2.777,1.714-5.588,3.288-8.434c1.578-2.841,3.521-5.428,5.845-7.758
			c2.317-2.336,4.946-4.288,7.885-5.865c2.931-1.574,6.078-2.51,9.434-2.803c3.99-0.35,7.244,0.28,9.762,1.896
			c2.518,1.612,4.159,3.854,4.929,6.72l-8.825,6.393c-0.204-1.175-0.591-2.131-1.147-2.871c-0.561-0.736-1.23-1.319-1.991-1.744
			c-0.766-0.421-1.586-0.688-2.467-0.804c-0.876-0.114-1.753-0.132-2.628-0.056c-1.872,0.162-3.604,0.715-5.185,1.667
			c-1.578,0.945-2.974,2.11-4.186,3.492c-1.209,1.383-2.217,2.923-3.024,4.607c-0.809,1.692-1.399,3.381-1.777,5.074
			c-0.408,1.825-0.541,3.564-0.405,5.21c0.145,1.65,0.558,3.079,1.243,4.3c0.688,1.217,1.637,2.145,2.845,2.787
			c1.208,0.638,2.667,0.884,4.39,0.73c0.876-0.076,1.808-0.271,2.803-0.595c0.987-0.319,1.974-0.766,2.943-1.34
			c0.966-0.57,1.896-1.297,2.803-2.161c0.893-0.867,1.697-1.909,2.395-3.117l6.877,4.444c-1.017,1.752-2.309,3.355-3.861,4.81
			c-1.56,1.459-3.258,2.714-5.1,3.765c-1.842,1.055-3.734,1.905-5.678,2.543c-1.94,0.638-3.79,1.029-5.547,1.183
			c-3.074,0.271-5.746-0.166-8.014-1.31c-2.271-1.145-4.083-2.761-5.431-4.857c-1.357-2.097-2.225-4.538-2.599-7.316
			C278.211,298.228,278.356,295.367,279.015,292.41z"/>
		<path style="fill:#FFFFFF;" d="M349.39,300.126l-2.097,9.379l-29.879,2.611l10.326-46.254l29.34-2.565l-2.094,9.383l-19.518,1.705
			l-2.008,8.992l16.767-1.463l-1.935,8.663l-16.767,1.463l-2.195,9.838L349.39,300.126z"/>
	</g>
</g>
</svg>
