<svg xmlns="http://www.w3.org/2000/svg" version="1.1" viewBox="-5.0 -10.0 110.0 135.0" fill="rgb(255, 89, 0)">
 <path d="m87.23 10.094h-74.461c-1.4375 0-2.6016 1.1641-2.6016 2.6055v49.414c0 0.69141 0.27344 1.3555 0.76172 1.8438 0.48828 0.48828 1.1523 0.76172 1.8398 0.76172h18.543l-2.0312 7.4062h-4.6875c-0.69141-0.003906-1.3555 0.26953-1.8438 0.75781-0.48828 0.49219-0.76172 1.1562-0.76172 1.8477v12.57c0 0.69141 0.27734 1.3555 0.76562 1.8438 0.48828 0.48828 1.1484 0.76172 1.8398 0.76172h50.812c0.69141 0 1.3516-0.27344 1.8398-0.76172 0.48828-0.48828 0.76562-1.1523 0.76562-1.8438v-12.57c0-0.69141-0.27344-1.3555-0.76172-1.8477-0.48828-0.48828-1.1523-0.76172-1.8438-0.75781h-4.6875l-2.082-7.4062h18.543-0.003907c0.69141 0 1.3555-0.27344 1.8438-0.76172s0.76172-1.1523 0.76172-1.8438v-49.414c0-1.418-1.1328-2.5781-2.5508-2.6055zm-52.199 45.238c-1.2656 0-2.4023-0.76172-2.8867-1.9297-0.48438-1.1641-0.21484-2.5117 0.67578-3.4023 0.89453-0.89453 2.2383-1.1641 3.4062-0.67969 1.168 0.48438 1.9297 1.625 1.9297 2.8867 0 1.7266-1.3984 3.125-3.125 3.125zm13.168 0c-1.2656 0-2.4062-0.76172-2.8867-1.9297-0.48438-1.1641-0.21875-2.5117 0.67578-3.4023 0.89453-0.89453 2.2383-1.1641 3.4062-0.67969 1.168 0.48438 1.9297 1.625 1.9297 2.8867 0 1.7266-1.4023 3.125-3.125 3.125zm9.25-25.125-3.6445 14.863-0.003907 0.003907c-0.27734 1.1641-1.3203 1.9883-2.5195 1.9883h-17.418c-1.1914-0.003906-2.2305-0.8125-2.5195-1.9688l-4.8555-19.176h-3.207c-1.4375 0-2.6055-1.168-2.6055-2.6055s1.168-2.6055 2.6055-2.6055h5.207c1.1914 0 2.2305 0.80469 2.5234 1.9609l4.8555 19.156h13.332l2.375-9.6562h-12.918c-1.4375 0-2.6055-1.168-2.6055-2.6055s1.168-2.6055 2.6055-2.6055h16.27c0.8125-0.011719 1.582 0.35547 2.0859 0.99219 0.49219 0.64062 0.65625 1.4805 0.4375 2.2578zm19.438 17.961-5.375 5.3867v-0.003907c-1.0195 1.0156-2.668 1.0156-3.6875 0l-2.8555-2.8555v0.003907c-0.50391-0.48438-0.78906-1.1523-0.79688-1.8516-0.007813-0.69922 0.26562-1.3711 0.75781-1.8633 0.49609-0.49609 1.168-0.76953 1.8633-0.76562 0.69922 0.003906 1.3672 0.28906 1.8516 0.79297l1.043 1.043 3.543-3.543c1.0273-0.92188 2.5977-0.87891 3.5742 0.097656 0.97656 0.97656 1.0234 2.5469 0.10156 3.5781zm-0.16797-9.0938h-11.582c-1.4414 0-2.6055-1.168-2.6055-2.6055s1.1641-2.6055 2.6055-2.6055h11.582c1.4375 0 2.6055 1.168 2.6055 2.6055s-1.168 2.6055-2.6055 2.6055zm0-10.512h-11.582c-1.4414 0-2.6055-1.1641-2.6055-2.6055 0-1.4375 1.1641-2.6016 2.6055-2.6016h11.582c1.4375 0 2.6055 1.1641 2.6055 2.6016 0 1.4414-1.168 2.6055-2.6055 2.6055z"/>
</svg>