<svg xmlns="http://www.w3.org/2000/svg" xmlns:xlink="http://www.w3.org/1999/xlink" version="1.1" x="0px" y="0px" fill="rgb(255, 89, 0)" viewBox="0 0 100 125" enable-background="new 0 0 100 100" xml:space="preserve"><path d="M55.2,2.7v6.2c3.5,0.7,6.4,2.3,8.6,4.8c2.1,2.4,3.2,5.4,3.4,9c0.1,0.9-0.7,1.6-1.6,1.6l-8.2,0.1c-0.8,0-1.5-0.6-1.6-1.4  c-0.2-1.8-0.6-3.1-1.4-4.1c-1-1.2-2.2-1.8-3.8-1.8c-1.6,0-2.8,0.5-3.6,1.5c-0.8,1-1.2,2.3-1.2,3.8c0,1.6,0.4,2.8,1.2,3.8  c0.8,1,2.4,2,4.6,3c5.3,2.2,9.1,4.5,11.6,6.7c2.5,2.2,3.7,5.4,3.7,9.6c0,3.9-1.2,7.1-3.7,9.5c-2.1,2-4.9,3.4-8.2,4v5.7  c0,0.8-0.6,1.4-1.4,1.4h-5c-0.8,0-1.4-0.6-1.4-1.4v-5.6c-4.2-0.5-7.7-2-10.5-4.5c-2.6-2.4-4-5.7-4.2-10c0-0.9,0.7-1.6,1.6-1.6  l8.1-0.1c0.8,0,1.5,0.6,1.6,1.4c0.2,2.1,0.8,3.6,1.8,4.6c1.2,1.2,2.8,1.9,4.8,1.9c1.6,0,2.9-0.5,3.7-1.4c0.8-1,1.3-2.2,1.3-3.7  c0-1.8-0.4-3.2-1.3-4.2c-0.9-1-2.4-2-4.6-2.9c-5.4-2.1-9.2-4.3-11.7-6.5c-2.4-2.2-3.7-5.4-3.7-9.6c0-3.8,1.3-7,3.9-9.5  c2.3-2.3,5.4-3.6,9.2-4.2v-6c0-0.8,0.6-1.4,1.4-1.4h5C54.6,1.3,55.2,2,55.2,2.7z M96.1,78.5l-27.4,16l-1,0.5  c-3.6,1.9-7.3,2.3-11.4,1.9l-36.2-1.6c-0.6,1.5-2,2.5-3.8,2.6l-8.2,0.6c-2.7,0.2-5.1-1.8-5.3-4.5L1.5,75.9c-0.2-2.6,1.9-4.9,4.6-5.1  l8.2-0.6c1.7-0.1,3.3,0.8,4.1,2.1c3.7-1.6,10.6-4.9,23-1.3c1.2,0.4,3.3,0.7,4.6,0.7L65.2,72c2.4-0.3,4.7,1.6,4.9,4.1s-1.6,4.7-4,5  l-21.5,2c-0.7,0.1-1.2,0.7-1.1,1.4c0.1,0.6,0.7,1.1,1.3,1l0.8,0c0,0,14.5-0.2,24.4-2.3c1.8-0.4,3.4-1,5-2c0.2-0.2,0.6-0.4,0.8-0.5  c3.4-2.4,8.6-5.3,12.3-7.2c1-0.5,4.9-2.6,6.7-2.5c2.6,0.2,3.7,2.2,3.6,4.1C98.4,76.4,97.5,77.7,96.1,78.5z M14,91.6  c0-1.5-1.3-2.7-2.8-2.7c-1.6,0-2.8,1.2-2.8,2.7s1.3,2.7,2.8,2.7C12.7,94.3,14,93.1,14,91.6z M75.4,76.5c2.8-2,8.5-5.1,11.7-6.7  c1-0.5,2-1,3.1-1.4c-1.4-0.9-2.9-1-4.5-0.4c-3.1,1.2-8.7,3.9-11.6,5.5c0,0,0,0.1,0,0.1c0.2,0.6,0.4,1.2,0.4,1.9c0.1,0.5,0,1,0,1.5  C74.8,76.9,75.1,76.7,75.4,76.5z M78.4,65.9c-1.9,0.8-6.1,2.1-8,3.1c0.8,0.5,1.5,1.1,2.1,1.8c0.1-0.1,0.2-0.2,0.4-0.3l1.4-0.8  c2-1.1,6.3-2.6,8.6-3.6C81.4,65.3,79.9,65.3,78.4,65.9z"/></svg>