<svg xmlns="http://www.w3.org/2000/svg" xmlns:xlink="http://www.w3.org/1999/xlink" version="1.1" x="0px" y="0px" viewBox="0 0 100 125" style="enable-background:new 0 0 100 100;" xml:space="preserve"><path d="M40.87,11.02c-1.37-1.37-3.58-1.37-4.95,0L24.54,22.42c-1.37,1.36-1.37,3.58,0,4.95s3.58,1.37,4.95,0l5.42-5.42v41.37  c0,1.93,1.56,3.5,3.5,3.5c1.93,0,3.5-1.57,3.5-3.5V21.94l5.42,5.42c0.68,0.68,1.58,1.02,2.47,1.02c0.89,0,1.79-0.34,2.47-1.02  c1.37-1.37,1.37-3.58,0-4.95L40.87,11.02z"/><path d="M61.6,33.19c-1.93,0-3.5,1.57-3.5,3.5v41.37l-5.42-5.42c-1.37-1.37-3.58-1.37-4.95,0s-1.37,3.58,0,4.95l11.39,11.39  C59.81,89.66,60.7,90,61.6,90c0.89,0,1.79-0.34,2.47-1.02l11.39-11.39c1.37-1.37,1.37-3.58,0-4.95s-3.58-1.37-4.95,0l-5.42,5.42  V36.69C65.1,34.76,63.53,33.19,61.6,33.19z"/><text x="0" y="115" fill="#000000" font-size="5px" font-weight="bold" font-family="'Helvetica Neue', Helvetica, Arial-Unicode, Arial, Sans-serif">Created by ainul muttaqin</text><text x="0" y="120" fill="#000000" font-size="5px" font-weight="bold" font-family="'Helvetica Neue', Helvetica, Arial-Unicode, Arial, Sans-serif">from the Noun Project</text></svg>